<svg width="348" height="157" viewBox="0 0 348 157" fill="none" xmlns="http://www.w3.org/2000/svg">
<path opacity="0.21" d="M230.898 236.032L236.817 229.864C246.419 219.858 252.776 207.185 255.054 193.504L257.065 181.426C258.732 171.415 270.198 166.486 278.61 172.163L293.243 182.039C302.951 188.591 316.187 182.967 318.209 171.431V171.431C319.858 162.027 327.982 155.138 337.53 155.049L355.862 154.879" stroke="white" stroke-width="0.5"/>
<path opacity="0.21" d="M242.898 264.032L248.817 257.864C258.419 247.858 264.776 235.185 267.054 221.504L269.065 209.426C270.732 199.415 282.198 194.486 290.61 200.163L305.243 210.039C314.951 216.591 328.187 210.967 330.209 199.431V199.431C331.858 190.027 339.982 183.138 349.53 183.049L367.862 182.879" stroke="white" stroke-width="0.5"/>
<path opacity="0.21" d="M140.898 245.504L158.678 230.878C177.875 215.086 193.953 195.847 206.083 174.15L221.892 145.876C226.87 136.972 237.3 132.638 247.122 135.392L281.848 145.128C293.799 148.478 305.49 139.051 304.748 126.661V126.661C304.015 114.405 311.716 103.222 323.428 99.5352L332.47 96.6891C336.659 95.3704 341.075 94.9239 345.443 95.3773L360.114 96.8997C372.244 98.1583 383.989 101.878 394.632 107.831L408 115.307" stroke="white" stroke-width="0.5"/>
<path opacity="0.21" d="M25.8975 265.1L95.4654 236.829C131.548 222.166 156.86 189.113 161.611 150.455V150.455C163.856 132.189 180.225 119.023 198.548 120.746L228.134 123.528C247.901 125.386 266.951 115.606 276.96 98.4589V98.4589C294.34 68.6876 332.547 58.6164 362.343 75.9526L363.415 76.576L422.915 107.076" stroke="white" stroke-width="0.5"/>
<path opacity="0.21" d="M156.898 260.196L174.678 245.57C193.875 229.778 209.953 210.539 222.083 188.843L235.549 164.759C241.902 153.397 255.211 147.866 267.745 151.38L297.441 159.706C311.092 163.533 325.236 155.451 328.868 141.746V141.746C332.244 129.009 343.274 119.777 356.406 118.696L367.986 117.742C373.913 117.254 379.872 118.16 385.387 120.387L403 127.5L416.084 91.8786" stroke="white" stroke-width="0.5"/>
</svg>
