<svg width="287" height="287" viewBox="0 0 287 287" fill="none" xmlns="http://www.w3.org/2000/svg">
<path fill-rule="evenodd" clip-rule="evenodd" d="M24 35C24 33.8954 24.8954 33 26 33H73.5048C74.3332 33 75.0048 32.3284 75.0048 31.5C75.0048 30.6716 74.3332 30 73.5048 30H24.2451C23.5548 30 22.9952 30.5596 22.9952 31.25V31.5023C22.9952 32.0533 22.5485 32.4999 21.9976 32.4999C21.4466 32.4999 21 32.9465 21 33.4975V83.0095C21 83.8379 21.6716 84.5095 22.5 84.5095C23.3284 84.5095 24 83.838 24 83.0095V35Z" fill="#E6E6E6"/>
<path fill-rule="evenodd" clip-rule="evenodd" d="M26 239.02C24.8954 239.02 24 238.124 24 237.02L24 189.515C24 188.687 23.3284 188.015 22.5 188.015C21.6716 188.015 21 188.687 21 189.515L21 238.775C21 239.465 21.5596 240.025 22.25 240.025H22.5023C23.0533 240.025 23.4999 240.471 23.4999 241.022C23.4999 241.573 23.9465 242.02 24.4975 242.02H74.0095C74.838 242.02 75.5095 241.348 75.5095 240.52C75.5095 239.691 74.838 239.02 74.0095 239.02H26Z" fill="#E6E6E6"/>
<path fill-rule="evenodd" clip-rule="evenodd" d="M261.514 33C262.619 33 263.514 33.8954 263.514 35V82.5048C263.514 83.3332 264.186 84.0048 265.014 84.0048C265.843 84.0048 266.514 83.3332 266.514 82.5048V33.2451C266.514 32.5548 265.955 31.9952 265.264 31.9952H265.012C264.461 31.9952 264.014 31.5485 264.014 30.9976C264.014 30.4466 263.568 30 263.017 30L213.505 30C212.676 30 212.005 30.6716 212.005 31.5C212.005 32.3284 212.676 33 213.505 33L261.514 33Z" fill="#E6E6E6"/>
<path fill-rule="evenodd" clip-rule="evenodd" d="M263.515 237.019C263.515 238.124 262.619 239.019 261.515 239.019L214.01 239.019C213.181 239.019 212.51 239.691 212.51 240.519C212.51 241.347 213.181 242.019 214.01 242.019L263.27 242.019C263.96 242.019 264.519 241.459 264.519 240.769V240.517C264.519 239.966 264.966 239.519 265.517 239.519C266.068 239.519 266.515 239.072 266.515 238.522L266.515 189.01C266.515 188.181 265.843 187.51 265.015 187.51C264.186 187.51 263.515 188.181 263.515 189.01V237.019Z" fill="#E6E6E6"/>
<path d="M49 207.056V64" stroke="#B3B3B3" stroke-width="2" stroke-linecap="round"/>
<path d="M59 207.056V64" stroke="#B3B3B3" stroke-width="6" stroke-linecap="round"/>
<path d="M69 207.056V64" stroke="#B3B3B3" stroke-width="2" stroke-linecap="round"/>
<path d="M79 207.056V64" stroke="#B3B3B3" stroke-width="4" stroke-linecap="round"/>
<path d="M89 207.056V64" stroke="#B3B3B3" stroke-width="2" stroke-linecap="round"/>
<path d="M99 207.056V64" stroke="#B3B3B3" stroke-width="6" stroke-linecap="round"/>
<path d="M109 207.056V64" stroke="#B3B3B3" stroke-width="2" stroke-linecap="round"/>
<path d="M119 207.056V64" stroke="#B3B3B3" stroke-width="4" stroke-linecap="round"/>
<path d="M129 207.056V64" stroke="#B3B3B3" stroke-width="2" stroke-linecap="round"/>
<path d="M139 207.056V64" stroke="#B3B3B3" stroke-width="6" stroke-linecap="round"/>
<path d="M149 207.056V64" stroke="#B3B3B3" stroke-width="2" stroke-linecap="round"/>
<path d="M159 207.056V64" stroke="#B3B3B3" stroke-width="4" stroke-linecap="round"/>
<path d="M169 207.056V64" stroke="#B3B3B3" stroke-width="2" stroke-linecap="round"/>
<path d="M179 207.056V64" stroke="#B3B3B3" stroke-width="6" stroke-linecap="round"/>
<path d="M189 207.056V64" stroke="#B3B3B3" stroke-width="2" stroke-linecap="round"/>
<path d="M199 207.056V64" stroke="#B3B3B3" stroke-width="4" stroke-linecap="round"/>
<path d="M209 207.056V64" stroke="#B3B3B3" stroke-width="2" stroke-linecap="round"/>
<path d="M219 207.056V64" stroke="#B3B3B3" stroke-width="6" stroke-linecap="round"/>
<path d="M229 207.056V64" stroke="#B3B3B3" stroke-width="2" stroke-linecap="round"/>
<path d="M239 207.056V64" stroke="#B3B3B3" stroke-width="4" stroke-linecap="round"/>
</svg>
