<svg width="310" height="296" viewBox="0 0 310 296" fill="none" xmlns="http://www.w3.org/2000/svg">
<path d="M155 295.834C240.604 295.834 310 229.773 310 148.284C310 66.7942 240.604 0.733887 155 0.733887C69.3959 0.733887 0 66.7942 0 148.284C0 229.773 69.3959 295.834 155 295.834Z" fill="#F2E6DC"/>
<path d="M13.7841 163.371H56.803L56.803 69.8678H13.7841L13.7841 163.371Z" fill="#E6D0BE"/>
<path d="M48.4111 81.5219H51.8262V76.0988H48.4111V81.5219Z" fill="#F2E6DC"/>
<path d="M38.6267 81.5219H42.0417V76.0988H38.6267V81.5219Z" fill="#F2E6DC"/>
<path d="M28.8417 81.5219H32.2568V76.0988H28.8417V81.5219Z" fill="#F2E6DC"/>
<path d="M19.0573 81.5219H22.4724V76.0988H19.0573V81.5219Z" fill="#F2E6DC"/>
<path d="M48.4111 93.4113H51.8262V87.9883H48.4111V93.4113Z" fill="#F2E6DC"/>
<path d="M38.6267 93.4113H42.0417V87.9883H38.6267V93.4113Z" fill="#F2E6DC"/>
<path d="M28.8417 93.4113H32.2568V87.9883H28.8417V93.4113Z" fill="#F2E6DC"/>
<path d="M19.0573 93.4113H22.4724V87.9883H19.0573V93.4113Z" fill="#F2E6DC"/>
<path d="M48.4111 105.301H51.8262V99.8777H48.4111V105.301Z" fill="#F2E6DC"/>
<path d="M38.6267 105.301H42.0417V99.8777H38.6267V105.301Z" fill="#F2E6DC"/>
<path d="M28.8417 105.301H32.2568V99.8777H28.8417V105.301Z" fill="#F2E6DC"/>
<path d="M19.0573 105.301H22.4724V99.8777H19.0573V105.301Z" fill="#F2E6DC"/>
<path d="M48.4111 117.192H51.8262V111.769H48.4111V117.192Z" fill="#F2E6DC"/>
<path d="M38.6267 117.192H42.0417V111.769H38.6267V117.192Z" fill="#F2E6DC"/>
<path d="M28.8417 117.192H32.2568V111.769H28.8417V117.192Z" fill="#F2E6DC"/>
<path d="M19.0573 117.192H22.4724V111.769H19.0573V117.192Z" fill="#F2E6DC"/>
<path d="M48.4111 129.081H51.8262V123.658H48.4111V129.081Z" fill="#F2E6DC"/>
<path d="M38.6267 129.081H42.0417V123.658H38.6267V129.081Z" fill="#F2E6DC"/>
<path d="M28.8417 129.081H32.2568V123.658H28.8417V129.081Z" fill="#F2E6DC"/>
<path d="M19.0573 129.081H22.4724V123.658H19.0573V129.081Z" fill="#F2E6DC"/>
<path d="M48.4111 140.972H51.8262V135.549H48.4111V140.972Z" fill="#F2E6DC"/>
<path d="M38.6267 140.972H42.0417V135.549H38.6267V140.972Z" fill="#F2E6DC"/>
<path d="M28.8417 140.972H32.2568V135.549H28.8417V140.972Z" fill="#F2E6DC"/>
<path d="M19.0573 140.972H22.4724V135.549H19.0573V140.972Z" fill="#F2E6DC"/>
<path d="M48.4111 152.863H51.8262V147.44H48.4111V152.863Z" fill="#F2E6DC"/>
<path d="M38.6267 152.863H42.0417V147.44H38.6267V152.863Z" fill="#F2E6DC"/>
<path d="M28.8417 152.863H32.2568V147.44H28.8417V152.863Z" fill="#F2E6DC"/>
<path d="M19.0573 152.863H22.4724V147.44H19.0573V152.863Z" fill="#F2E6DC"/>
<path d="M0.0165825 209.224H54.458L54.458 116.415H0.0165825L0.0165825 209.224Z" fill="#E6D0BE"/>
<path d="M43.8373 130.263H48.1604V123.819H43.8373V130.263Z" fill="#F2E6DC"/>
<path d="M31.4555 130.263H35.7786V123.819H31.4555V130.263Z" fill="#F2E6DC"/>
<path d="M19.0744 130.263H23.3975V123.819H19.0744V130.263Z" fill="#F2E6DC"/>
<path d="M6.69135 130.263H11.0144V123.819H6.69135L6.69135 130.263Z" fill="#F2E6DC"/>
<path d="M43.8373 145.004H48.1604V138.56H43.8373V145.004Z" fill="#F2E6DC"/>
<path d="M31.4555 145.004H35.7786V138.56H31.4555V145.004Z" fill="#F2E6DC"/>
<path d="M19.0744 145.004H23.3975V138.56H19.0744V145.004Z" fill="#F2E6DC"/>
<path d="M6.69135 145.004H11.0144V138.56H6.69135L6.69135 145.004Z" fill="#F2E6DC"/>
<path d="M43.8373 159.747H48.1604V153.304H43.8373V159.747Z" fill="#F2E6DC"/>
<path d="M31.4555 159.747H35.7786V153.304H31.4555V159.747Z" fill="#F2E6DC"/>
<path d="M19.0744 159.747H23.3975V153.304H19.0744V159.747Z" fill="#F2E6DC"/>
<path d="M6.69135 159.747H11.0144V153.304H6.69135L6.69135 159.747Z" fill="#F2E6DC"/>
<path d="M43.8373 174.488H48.1604V168.044H43.8373V174.488Z" fill="#F2E6DC"/>
<path d="M31.4555 174.488H35.7786V168.044H31.4555V174.488Z" fill="#F2E6DC"/>
<path d="M19.0744 174.488H23.3975V168.044H19.0744V174.488Z" fill="#F2E6DC"/>
<path d="M6.69135 174.488H11.0144V168.044H6.69135L6.69135 174.488Z" fill="#F2E6DC"/>
<path d="M43.8373 189.23H48.1604V182.786H43.8373V189.23Z" fill="#F2E6DC"/>
<path d="M31.4555 189.23H35.7786V182.786H31.4555V189.23Z" fill="#F2E6DC"/>
<path d="M19.0744 189.23H23.3975V182.786H19.0744V189.23Z" fill="#F2E6DC"/>
<path d="M6.69135 189.23H11.0144V182.786H6.69135L6.69135 189.23Z" fill="#F2E6DC"/>
<path d="M195.655 21.2248H65.6731V254.658H195.655V21.2248Z" fill="#E6D0BE"/>
<path d="M191.702 268.797H68.7282C65.1955 268.793 61.8086 267.456 59.3105 265.078C56.8125 262.7 55.4074 259.476 55.4033 256.113V17.5514C55.4069 14.1881 56.8119 10.9636 59.3099 8.5853C61.808 6.20698 65.1952 4.86914 68.7282 4.8653H191.702C195.235 4.86956 198.621 6.20755 201.119 8.58577C203.617 10.964 205.023 14.1883 205.027 17.5514V256.113C205.023 259.476 203.617 262.7 201.119 265.078C198.621 267.456 195.234 268.793 191.702 268.797ZM68.7282 5.57644C65.3933 5.58028 62.1962 6.8432 59.8382 9.08815C57.4802 11.3331 56.154 14.3767 56.1504 17.5514V256.113C56.1544 259.287 57.4809 262.33 59.8388 264.575C62.1967 266.82 65.3936 268.082 68.7282 268.086H191.702C195.036 268.082 198.233 266.82 200.591 264.575C202.949 262.33 204.276 259.287 204.28 256.113V17.5514C204.276 14.3767 202.95 11.3331 200.592 9.08815C198.234 6.8432 195.037 5.58028 191.702 5.57644H68.7282Z" fill="#363E44"/>
<path d="M80.2056 21.2248H94.8078V56.1965C94.8078 57.8003 94.1385 59.3384 92.9472 60.4725C91.7559 61.6065 90.1401 62.2436 88.4553 62.2436H86.5631C84.8783 62.2436 83.2626 61.6065 82.0712 60.4725C80.8799 59.3384 80.2107 57.8003 80.2107 56.1965V21.2248H80.2056Z" fill="white"/>
<path d="M65.603 21.2248H80.2052V56.1965C80.2052 57.8003 79.5359 59.3384 78.3446 60.4725C77.1533 61.6065 75.5375 62.2436 73.8527 62.2436H71.9555C70.2707 62.2436 68.6549 61.6065 67.4636 60.4725C66.2723 59.3384 65.603 57.8003 65.603 56.1965V21.2248Z" fill="#AF7951"/>
<path d="M94.6126 21.2248H109.215V56.1965C109.215 57.8003 108.546 59.3384 107.354 60.4725C106.163 61.6065 104.547 62.2436 102.862 62.2436H100.962C99.2769 62.2436 97.6612 61.6065 96.4698 60.4725C95.2785 59.3384 94.6093 57.8003 94.6093 56.1965V21.2248H94.6126Z" fill="#B07A54"/>
<path d="M109.02 21.2248H123.622V56.1965C123.622 57.8003 122.953 59.3384 121.762 60.4725C120.57 61.6065 118.955 62.2436 117.27 62.2436H115.371C113.686 62.2436 112.07 61.6065 110.879 60.4725C109.688 59.3384 109.018 57.8003 109.018 56.1965V21.2248H109.02Z" fill="white"/>
<path d="M123.426 21.2248H138.028V56.1965C138.028 57.8003 137.358 59.3384 136.167 60.4725C134.976 61.6065 133.36 62.2436 131.675 62.2436H129.776C128.092 62.2436 126.476 61.6065 125.284 60.4725C124.093 59.3384 123.424 57.8003 123.424 56.1965V21.2248H123.426Z" fill="#AF7951"/>
<path d="M137.833 21.2248H152.435V56.1965C152.435 56.9906 152.271 57.777 151.952 58.5107C151.632 59.2443 151.164 59.9109 150.574 60.4725C149.985 61.034 149.284 61.4794 148.514 61.7833C147.743 62.0872 146.917 62.2436 146.083 62.2436H144.184C142.499 62.2436 140.883 61.6065 139.692 60.4725C138.5 59.3384 137.831 57.8003 137.831 56.1965V21.2248H137.833Z" fill="white"/>
<path d="M152.241 21.2248H166.843V56.1965C166.843 57.8003 166.174 59.3384 164.983 60.4725C163.791 61.6065 162.176 62.2436 160.491 62.2436H158.592C156.907 62.2436 155.291 61.6065 154.1 60.4725C152.909 59.3384 152.24 57.8003 152.24 56.1965V21.2248H152.241Z" fill="#AF7951"/>
<path d="M166.646 21.2248H181.257V56.1965C181.257 57.8003 180.588 59.3384 179.396 60.4725C178.205 61.6065 176.589 62.2436 174.904 62.2436H173.005C171.321 62.2436 169.705 61.6065 168.514 60.4725C167.322 59.3384 166.653 57.8003 166.653 56.1965V21.2248H166.646Z" fill="white"/>
<path d="M181.054 21.2248H195.656V56.1965C195.656 57.8003 194.987 59.3384 193.796 60.4725C192.604 61.6065 190.988 62.2436 189.304 62.2436H187.405C185.72 62.2436 184.104 61.6065 182.913 60.4725C181.722 59.3384 181.052 57.8003 181.052 56.1965V21.2248H181.054Z" fill="#AF7951"/>
<path d="M195.61 21.5795H65.6813C65.6301 21.5828 65.5788 21.576 65.5305 21.5596C65.4822 21.5433 65.4379 21.5176 65.4004 21.4843C65.363 21.4509 65.3331 21.4106 65.3127 21.3658C65.2923 21.321 65.2817 21.2728 65.2817 21.2239C65.2817 21.1751 65.2923 21.1268 65.3127 21.082C65.3331 21.0373 65.363 20.9969 65.4004 20.9636C65.4379 20.9303 65.4822 20.9046 65.5305 20.8882C65.5788 20.8718 65.6301 20.8651 65.6813 20.8684H195.61C195.661 20.8651 195.713 20.8718 195.761 20.8882C195.809 20.9046 195.854 20.9303 195.891 20.9636C195.929 20.9969 195.958 21.0373 195.979 21.082C195.999 21.1268 196.01 21.1751 196.01 21.2239C196.01 21.2728 195.999 21.321 195.979 21.3658C195.958 21.4106 195.929 21.4509 195.891 21.4843C195.854 21.5176 195.809 21.5433 195.761 21.5596C195.713 21.576 195.661 21.5828 195.61 21.5795Z" fill="#D87355"/>
<path d="M153.169 202.529H110.311C110.212 202.529 110.117 202.491 110.047 202.425C109.977 202.359 109.937 202.268 109.937 202.174V161.389C109.937 161.295 109.977 161.205 110.047 161.138C110.117 161.072 110.212 161.034 110.311 161.034H153.169C153.268 161.034 153.363 161.072 153.433 161.138C153.503 161.205 153.543 161.295 153.543 161.389V202.174C153.543 202.268 153.503 202.359 153.433 202.425C153.363 202.491 153.268 202.529 153.169 202.529ZM110.68 201.818H152.796V161.745H110.68V201.818Z" fill="white"/>
<path d="M129.439 196.008L116.02 184.394L120.165 179.53L128.674 186.002L142.026 167.555L147.457 171.114L129.439 196.008Z" fill="white"/>
<path d="M109.252 128.468C109.167 128.468 109.085 128.441 109.019 128.39C108.953 128.34 108.906 128.27 108.888 128.191L98.7526 85.9887L86.1815 86.1032C86.0868 86.0971 85.998 86.057 85.9332 85.991C85.8683 85.9249 85.8323 85.8379 85.8323 85.7476C85.8323 85.6572 85.8683 85.5702 85.9332 85.5042C85.998 85.4382 86.0868 85.3981 86.1815 85.392L99.0558 85.2743C99.1403 85.2745 99.2222 85.3021 99.2881 85.3525C99.354 85.4029 99.3999 85.4731 99.4183 85.5516L109.548 127.735L155.286 124.071L155.262 96.4058L141.428 96.4155C141.333 96.4094 141.244 96.3693 141.179 96.3033C141.114 96.2373 141.078 96.1503 141.078 96.0599C141.078 95.9696 141.114 95.8826 141.179 95.8166C141.244 95.7505 141.333 95.7104 141.428 95.7044L155.637 95.6947C155.686 95.6945 155.734 95.7035 155.78 95.7213C155.825 95.739 155.866 95.7651 155.901 95.7981C155.935 95.8311 155.963 95.8703 155.981 95.9134C156 95.9566 156.01 96.0028 156.009 96.0495L156.035 124.397C156.035 124.486 156.001 124.571 155.938 124.637C155.875 124.703 155.789 124.743 155.696 124.752L109.281 128.46L109.252 128.468Z" fill="#363E44"/>
<path d="M143.601 125.727C143.508 125.727 143.418 125.694 143.349 125.634C143.28 125.575 143.237 125.493 143.228 125.405L141.082 96.4526L101.563 96.4639C101.468 96.4578 101.379 96.4177 101.315 96.3517C101.25 96.2857 101.214 96.1987 101.214 96.1083C101.214 96.018 101.25 95.931 101.315 95.8649C101.379 95.7989 101.468 95.7588 101.563 95.7527L141.431 95.7415C141.524 95.7411 141.614 95.774 141.683 95.8337C141.752 95.8934 141.795 95.9756 141.804 96.064L143.975 125.347C143.982 125.439 143.951 125.531 143.887 125.602C143.824 125.673 143.734 125.717 143.636 125.726L143.601 125.727Z" fill="#363E44"/>
<path d="M105.276 147.955C103.21 147.926 101.238 147.124 99.7871 145.723C98.3363 144.321 97.5231 142.433 97.5231 140.465C97.5231 138.498 98.3363 136.609 99.7871 135.208C101.238 133.806 103.21 133.004 105.276 132.976C107.361 132.978 109.36 133.766 110.835 135.169C112.31 136.571 113.14 138.473 113.145 140.458C113.144 142.445 112.315 144.351 110.84 145.756C109.365 147.162 107.364 147.953 105.276 147.955ZM105.276 133.687C103.388 133.687 101.577 134.401 100.241 135.672C98.9057 136.943 98.1555 138.667 98.1555 140.465C98.1555 142.263 98.9057 143.987 100.241 145.258C101.577 146.529 103.388 147.244 105.276 147.244C107.164 147.239 108.973 146.523 110.306 145.251C111.64 143.98 112.39 142.256 112.391 140.46C112.387 138.664 111.636 136.944 110.303 135.675C108.969 134.405 107.162 133.691 105.276 133.687Z" fill="#363E44"/>
<path d="M159.399 147.913C157.332 147.884 155.36 147.082 153.91 145.681C152.459 144.279 151.646 142.391 151.646 140.423C151.646 138.456 152.459 136.567 153.91 135.166C155.36 133.764 157.332 132.963 159.399 132.934C161.466 132.963 163.437 133.764 164.888 135.166C166.339 136.567 167.152 138.456 167.152 140.423C167.152 142.391 166.339 144.279 164.888 145.681C163.437 147.082 161.466 147.884 159.399 147.913ZM159.399 133.645C157.51 133.645 155.699 134.359 154.364 135.63C153.028 136.901 152.278 138.625 152.278 140.423C152.278 142.221 153.028 143.945 154.364 145.216C155.699 146.488 157.51 147.202 159.399 147.202C161.287 147.202 163.099 146.488 164.434 145.216C165.769 143.945 166.52 142.221 166.52 140.423C166.52 138.625 165.769 136.901 164.434 135.63C163.099 134.359 161.287 133.645 159.399 133.645Z" fill="#363E44"/>
<path d="M112.762 140.764C112.667 140.758 112.579 140.718 112.514 140.652C112.449 140.586 112.413 140.499 112.413 140.409C112.413 140.318 112.449 140.231 112.514 140.165C112.579 140.099 112.667 140.059 112.762 140.053L151.846 140.024C151.897 140.021 151.948 140.028 151.997 140.044C152.045 140.06 152.089 140.086 152.127 140.119C152.164 140.153 152.194 140.193 152.214 140.238C152.235 140.283 152.245 140.331 152.245 140.38C152.245 140.429 152.235 140.477 152.214 140.522C152.194 140.566 152.164 140.607 152.127 140.64C152.089 140.673 152.045 140.699 151.997 140.715C151.948 140.732 151.897 140.739 151.846 140.735L112.762 140.764Z" fill="#363E44"/>
<path d="M107.462 133.998C107.425 133.998 107.387 133.993 107.352 133.982C107.257 133.954 107.178 133.891 107.131 133.808C107.085 133.725 107.075 133.627 107.104 133.537L108.895 128.009C108.927 127.922 108.994 127.851 109.08 127.81C109.166 127.769 109.266 127.761 109.358 127.788C109.45 127.815 109.528 127.875 109.575 127.955C109.622 128.035 109.634 128.13 109.61 128.218L107.818 133.746C107.794 133.819 107.747 133.882 107.683 133.927C107.619 133.973 107.542 133.997 107.462 133.998Z" fill="#363E44"/>
<path d="M132.304 126.624C132.214 126.623 132.127 126.592 132.059 126.536C131.992 126.48 131.947 126.402 131.935 126.317L127.497 96.2994C127.488 96.2085 127.517 96.118 127.576 96.0465C127.636 95.9751 127.722 95.9281 127.817 95.9153C127.912 95.9025 128.008 95.9248 128.086 95.9776C128.164 96.0305 128.218 96.1099 128.237 96.1994L132.673 126.219C132.687 126.312 132.661 126.407 132.602 126.482C132.543 126.557 132.454 126.607 132.357 126.62L132.304 126.624Z" fill="#363E44"/>
<path d="M120.206 127.593C120.118 127.592 120.034 127.563 119.967 127.51C119.9 127.457 119.854 127.383 119.838 127.301L113.851 96.1446C113.843 96.0988 113.843 96.0517 113.853 96.0061C113.864 95.9605 113.883 95.9173 113.911 95.8789C113.939 95.8405 113.974 95.8076 114.015 95.7823C114.056 95.7569 114.102 95.7395 114.15 95.731C114.199 95.7225 114.248 95.7232 114.296 95.7329C114.344 95.7426 114.389 95.7612 114.43 95.7876C114.47 95.8141 114.504 95.8478 114.531 95.8869C114.558 95.9261 114.576 95.9698 114.585 96.0156L120.573 127.178C120.582 127.224 120.581 127.271 120.571 127.317C120.561 127.362 120.541 127.406 120.513 127.444C120.485 127.482 120.45 127.515 120.409 127.54C120.367 127.566 120.322 127.583 120.273 127.591C120.251 127.594 120.228 127.595 120.206 127.593Z" fill="#363E44"/>
<path d="M105.616 113.31C105.521 113.307 105.43 113.269 105.363 113.205C105.297 113.14 105.258 113.054 105.256 112.963C105.253 112.873 105.287 112.784 105.351 112.717C105.414 112.649 105.502 112.607 105.597 112.599L155.638 110.369C155.687 110.367 155.735 110.374 155.782 110.39C155.828 110.405 155.87 110.43 155.906 110.461C155.943 110.492 155.972 110.53 155.993 110.572C156.014 110.615 156.026 110.66 156.028 110.707C156.03 110.753 156.023 110.8 156.007 110.844C155.99 110.888 155.964 110.928 155.932 110.963C155.899 110.997 155.859 111.025 155.814 111.045C155.77 111.065 155.722 111.076 155.673 111.079L105.629 113.31H105.616Z" fill="#363E44"/>
<path d="M83.7966 276.349C82.4348 278.696 81.4239 281.213 80.7932 283.826C79.8852 287.621 79.7856 291.55 80.5001 295.382H116.377C116.152 293.987 115.764 292.619 115.222 291.305C110.479 279.868 95.3158 276.412 91.8736 275.704L83.7966 276.349Z" fill="#E6D0BE"/>
<path d="M79.5005 264.803L82.238 276.857C82.841 279.287 85.3058 280.933 87.8925 280.511C88.0399 280.488 88.1906 280.458 88.3431 280.424C89.5022 280.153 90.5228 279.499 91.2229 278.579C91.9231 277.659 92.2574 276.532 92.1664 275.399L90.9806 263.605L79.5005 264.803Z" fill="#BC8271"/>
<path d="M12.1883 272.769C12.1883 272.769 6.20513 283.767 7.27573 295.382H31.3473C29.4227 287.698 25.4901 280.6 19.9146 274.749L12.1883 272.769Z" fill="#E6D0BE"/>
<path d="M11.1129 275.422C10.9435 271.406 10.9639 264.001 12.8832 258.041L26.8772 261.974C26.8772 261.974 22.2848 268.62 20.8331 276.044C20.3943 278.289 18.2921 279.914 15.9069 279.743C15.5786 279.72 15.2518 279.68 14.9278 279.624C13.8851 279.44 12.9392 278.924 12.2458 278.16C11.5525 277.396 11.1529 276.43 11.1129 275.422Z" fill="#BC8271"/>
<path d="M35.3701 155.431C35.3701 155.431 9.07766 194.519 8.74902 269.923H27.9504C27.9504 269.923 50.9751 204.775 66.1397 188.527L60.5309 152.162L35.3701 155.431Z" fill="#363E44"/>
<path d="M47.4431 196.635C47.4431 196.635 71.7502 234.769 77.381 269.915H95.2949C95.2949 269.915 96.8517 184.953 64.1797 150.469L48.2766 153.471L47.4431 196.635Z" fill="#363E44"/>
<path d="M58.3374 126.24C58.3374 126.24 78.6399 140.124 95.6204 124.618L99.2269 117.65C99.2269 117.65 103.391 128.454 100.45 138.989C97.5092 149.524 85.4107 151.648 68.8198 148.427L58.3374 126.24Z" fill="#BC8271"/>
<path d="M26.1421 168.067C36.5296 161.852 58.2686 149.983 73.6297 149.44C73.6297 149.44 75.3864 136.568 60.1235 124.95C60.1235 124.95 42.4908 114.257 19.2103 123.852C19.2103 123.852 3.04964 149.508 10.7895 164.053C13.6506 169.428 20.7789 171.276 26.1421 168.067Z" fill="#EFBC73"/>
<path d="M19.6677 123.605C19.6677 130.805 20.0353 136.928 20.6739 147.327C21.4074 159.273 21.7428 165.085 17.0911 166.854C-8.64059 176.636 -1.78332 134.38 19.6677 123.605Z" fill="#BC8271"/>
<path d="M14.6736 148.424C14.6736 148.424 30.1245 142.435 38.5589 139.811C47.4083 137.055 60.8941 134.212 61.2871 136.014C61.5107 137.039 59.7625 137.788 54.9245 139.495C55.2633 139.642 56.1425 140.242 56.1865 141.225C56.2509 142.677 55.0465 143.136 54.9567 143.217C55.0736 143.259 56.3305 143.731 56.5473 144.699C56.6605 145.155 56.6236 145.633 56.4418 146.069C56.26 146.504 55.9421 146.876 55.531 147.134C55.8206 147.244 56.8421 147.752 57.0217 148.688C57.2063 149.656 56.6659 150.785 55.6411 151.086C53.7624 151.643 48.1452 153.194 45.5076 154.265C40.3172 156.376 22.9437 166.22 14.5957 167.381C15.9882 160.559 14.6736 148.424 14.6736 148.424Z" fill="#BC8271"/>
<path d="M53.2707 151.083C53.183 151.083 53.0982 151.053 53.031 151C52.9638 150.946 52.9186 150.872 52.9031 150.79L52.6134 149.23C52.6048 149.184 52.6059 149.137 52.6164 149.092C52.627 149.046 52.6469 149.003 52.675 148.965C52.703 148.926 52.7388 148.894 52.7801 148.869C52.8214 148.844 52.8675 148.826 52.9158 148.818C52.9641 148.81 53.0135 148.811 53.0614 148.821C53.1093 148.831 53.1546 148.85 53.1948 148.877C53.235 148.904 53.2693 148.938 53.2957 148.977C53.322 149.016 53.34 149.06 53.3486 149.106L53.6383 150.665C53.6471 150.711 53.6462 150.759 53.6358 150.804C53.6254 150.85 53.6056 150.893 53.5776 150.932C53.5496 150.97 53.5139 151.003 53.4725 151.028C53.4312 151.053 53.3851 151.07 53.3367 151.078L53.2707 151.083Z" fill="#363E44"/>
<path d="M52.4963 147.336C52.4065 147.336 52.3197 147.305 52.2519 147.249C52.184 147.193 52.1397 147.115 52.127 147.031L51.8577 145.257C51.8484 145.166 51.8764 145.075 51.9359 145.003C51.9953 144.93 52.0816 144.883 52.1769 144.87C52.2722 144.857 52.3691 144.879 52.4475 144.932C52.5259 144.985 52.5798 145.065 52.598 145.155L52.8656 146.929C52.8728 146.975 52.8704 147.022 52.8584 147.068C52.8465 147.113 52.8253 147.156 52.796 147.193C52.7667 147.23 52.73 147.262 52.6879 147.286C52.6457 147.31 52.5991 147.326 52.5505 147.332C52.5326 147.335 52.5145 147.336 52.4963 147.336Z" fill="#363E44"/>
<path d="M51.9696 143.344C51.882 143.344 51.7971 143.315 51.73 143.261C51.6628 143.207 51.6175 143.133 51.6021 143.051C51.5478 142.759 51.5004 142.495 51.453 142.23C51.4055 141.966 51.3598 141.708 51.3056 141.424C51.2899 141.332 51.3129 141.237 51.3697 141.161C51.4264 141.085 51.5124 141.033 51.6091 141.016C51.7057 141 51.8053 141.02 51.8864 141.073C51.9675 141.125 52.0235 141.206 52.0425 141.298C52.0967 141.59 52.1441 141.853 52.1899 142.117C52.2356 142.382 52.2847 142.641 52.3389 142.932C52.3557 143.025 52.3333 143.12 52.2765 143.197C52.2197 143.275 52.1332 143.328 52.0357 143.344H51.9696Z" fill="#363E44"/>
<path d="M51.2057 140.105C51.1228 140.105 51.0424 140.078 50.977 140.03C50.9117 139.981 50.8652 139.914 50.8448 139.837L50.4366 138.313C50.4179 138.224 50.4361 138.131 50.4874 138.053C50.5387 137.976 50.6192 137.921 50.7122 137.898C50.8053 137.876 50.9038 137.889 50.9874 137.933C51.071 137.978 51.1334 138.052 51.1616 138.139L51.5682 139.663C51.5804 139.708 51.5831 139.755 51.5762 139.801C51.5692 139.848 51.5528 139.892 51.5277 139.932C51.5027 139.972 51.4696 140.007 51.4303 140.035C51.3911 140.063 51.3464 140.084 51.2988 140.095C51.2682 140.101 51.237 140.105 51.2057 140.105Z" fill="#363E44"/>
<path d="M92.6672 135.917H77.2791L87.4277 113.317H102.816L92.6672 135.917Z" fill="#84524D"/>
<path d="M90.9096 116.052C90.9096 116.248 90.8486 116.439 90.7343 116.602C90.62 116.765 90.4575 116.892 90.2675 116.966C90.0774 117.041 89.8683 117.061 89.6665 117.023C89.4648 116.985 89.2795 116.89 89.134 116.752C88.9885 116.613 88.8895 116.437 88.8493 116.245C88.8092 116.053 88.8298 115.854 88.9085 115.673C88.9872 115.492 89.1206 115.337 89.2916 115.228C89.4626 115.12 89.6637 115.062 89.8695 115.062C90.1453 115.062 90.4099 115.166 90.6049 115.352C90.8 115.537 90.9096 115.789 90.9096 116.052Z" fill="#EFBC73"/>
<path d="M102.441 121.041C102.441 122.525 102.31 123.728 99.6119 123.728C96.9133 123.728 92.6665 122.525 92.6665 121.041C92.6665 119.557 96.9116 118.356 99.6119 118.356C102.312 118.356 102.441 119.557 102.441 121.041Z" fill="#BC8271"/>
<path d="M91.2346 124.989C91.2346 123.505 95.4798 122.302 98.18 122.302C100.88 122.302 101.009 123.505 101.009 124.989H91.2346Z" fill="#BC8271"/>
<path d="M101.008 124.989C101.008 126.471 100.877 127.673 98.1786 127.673C95.4801 127.673 91.2333 126.471 91.2333 124.989H101.008Z" fill="#BC8271"/>
<path d="M89.802 128.934C89.802 127.451 94.0471 126.25 96.7474 126.25C99.4476 126.25 99.5763 127.451 99.5763 128.934H89.802Z" fill="#BC8271"/>
<path d="M99.5749 128.935C99.5749 130.418 99.4444 131.619 96.7459 131.619C94.0474 131.619 89.8005 130.418 89.8005 128.935H99.5749Z" fill="#BC8271"/>
<path d="M90.3691 132.339C90.3691 131.16 93.7419 130.204 95.8865 130.204C98.0311 130.204 98.1361 131.16 98.1361 132.339H90.3691Z" fill="#BC8271"/>
<path d="M98.1412 132.339C98.1412 133.517 98.0378 134.474 95.8915 134.474C93.7453 134.474 90.3691 133.509 90.3691 132.339H98.1412Z" fill="#BC8271"/>
<path d="M45.1505 114.427C50.2326 112.465 52.6812 106.952 50.6197 102.114C48.5581 97.2763 42.7671 94.9454 37.685 96.9078C32.603 98.8703 30.1544 104.383 32.2159 109.221C34.2775 114.059 40.0685 116.389 45.1505 114.427Z" fill="#363E44"/>
<path d="M48.2806 110.372C47.0237 109.713 44.8723 107.953 44.1778 109.143L36.0314 121.546C35.3368 122.741 39.5041 122.325 40.761 122.986C41.0596 123.143 41.3879 123.243 41.727 123.279C42.0662 123.316 42.4095 123.288 42.7375 123.198C43.0655 123.109 43.3717 122.958 43.6386 122.756C43.9054 122.553 44.1278 122.303 44.293 122.018L49.2987 113.738C49.4641 113.453 49.5691 113.14 49.6074 112.817C49.6458 112.494 49.6169 112.167 49.5223 111.854C49.4278 111.542 49.2695 111.25 49.0564 110.996C48.8433 110.741 48.5797 110.53 48.2806 110.372Z" fill="#BC8271"/>
<path d="M40.3153 124.518C44.195 124.518 47.3402 123.616 47.3402 122.504C47.3402 121.391 44.195 120.49 40.3153 120.49C36.4355 120.49 33.2903 121.391 33.2903 122.504C33.2903 123.616 36.4355 124.518 40.3153 124.518Z" fill="#BC8271"/>
<path d="M54.8564 113.784C53.7299 115.794 47.1217 114.929 47.1217 114.929L41.3621 110.653C40.7238 109.287 40.664 107.739 41.195 106.331C41.7261 104.924 42.8071 103.766 44.2128 103.099C45.6185 102.431 47.2405 102.306 48.7408 102.749C50.2411 103.192 51.504 104.169 52.2663 105.476C52.2663 105.476 56.0049 111.74 54.8564 113.784Z" fill="#BC8271"/>
<path d="M52.3528 107.139C52.3528 107.139 54.6803 107.945 54.8108 108.379C54.9649 108.906 53.4149 110.008 53.4149 110.008C53.4149 110.008 52.3951 107.123 52.3528 107.139Z" fill="#BC8271"/>
<path d="M47.3169 109.253C47.7883 108.659 48.3923 108.172 49.0854 107.828C49.3192 107.716 49.8105 109.709 49.536 109.714C48.77 109.715 48.013 109.557 47.3169 109.253Z" fill="white"/>
<mask id="mask0_1_356" style="mask-type:luminance" maskUnits="userSpaceOnUse" x="47" y="107" width="6" height="3">
<path d="M47.3169 109.253C47.3169 109.253 48.2994 107.928 49.8443 107.56C51.3893 107.192 52.9104 107.921 52.9104 107.921C52.9104 107.921 51.9279 109.245 50.383 109.613C48.8381 109.98 47.3169 109.253 47.3169 109.253Z" fill="white"/>
</mask>
<g mask="url(#mask0_1_356)">
<path d="M49.1073 107.762C49.2381 107.39 49.4816 107.064 49.8072 106.824C50.1328 106.584 50.5257 106.441 50.9364 106.414C51.3471 106.387 51.7571 106.476 52.1145 106.67C52.472 106.865 52.7608 107.156 52.9445 107.506C53.1283 107.857 53.1987 108.252 53.1468 108.641C53.0949 109.029 52.9231 109.395 52.6531 109.691C52.3831 109.987 52.027 110.2 51.6299 110.303C51.2327 110.406 50.8124 110.395 50.4219 110.271C49.8982 110.104 49.4655 109.746 49.219 109.275C48.9725 108.805 48.9324 108.26 49.1073 107.762Z" fill="#363E44"/>
</g>
<path d="M52.1563 111.988C52.11 111.99 52.0636 111.99 52.0174 111.988C51.7897 111.962 51.5741 111.876 51.3946 111.741C51.2151 111.605 51.0788 111.424 51.001 111.219C50.9844 111.175 50.9771 111.128 50.9794 111.082C50.9818 111.035 50.9938 110.989 51.0147 110.947C51.0356 110.905 51.0651 110.867 51.1014 110.836C51.1377 110.804 51.1801 110.78 51.2263 110.764C51.2724 110.748 51.3214 110.741 51.3704 110.744C51.4194 110.746 51.4674 110.757 51.5118 110.777C51.5562 110.797 51.596 110.825 51.6289 110.86C51.6619 110.894 51.6874 110.935 51.704 110.979C51.7347 111.061 51.7893 111.132 51.8615 111.186C51.9336 111.239 52.0202 111.272 52.1113 111.281C52.2023 111.289 52.2939 111.272 52.3754 111.233C52.4568 111.193 52.5248 111.133 52.5713 111.058C52.6217 110.977 52.7034 110.919 52.7986 110.896C52.8937 110.873 52.9947 110.886 53.0795 110.933C53.1632 110.982 53.2236 111.06 53.248 111.15C53.2723 111.24 53.2587 111.336 53.2099 111.417C53.1007 111.591 52.9463 111.734 52.7618 111.834C52.5772 111.934 52.3686 111.987 52.1563 111.988Z" fill="#363E44"/>
<path d="M37.0189 111.707C37.0189 111.707 45.5803 112.067 50.9926 103.917C56.4049 95.7672 41.552 96.2478 35.3825 99.0037C31.4304 100.769 37.0189 111.707 37.0189 111.707Z" fill="#363E44"/>
<path d="M39.1394 118.48C38.9744 118.483 38.8095 118.472 38.6464 118.448C38.5487 118.433 38.4613 118.381 38.4035 118.305C38.3457 118.228 38.3222 118.133 38.3381 118.04C38.3541 117.947 38.4082 117.864 38.4886 117.809C38.5689 117.754 38.669 117.731 38.7667 117.747C38.7769 117.747 40.0541 117.929 41.0265 117.184C41.721 116.652 42.1106 115.77 42.1852 114.562C42.2953 112.773 40.952 111.769 39.9694 111.035C39.3359 110.561 38.8362 110.188 38.9429 109.689C39.0411 109.234 39.5917 108.932 40.9757 108.581C45.5664 107.412 48.2378 102.256 48.2598 102.203C48.3032 102.117 48.3805 102.052 48.4747 102.021C48.5688 101.989 48.6722 101.995 48.7621 102.036C48.852 102.077 48.9209 102.151 48.9538 102.241C48.9867 102.33 48.9808 102.429 48.9374 102.514C48.8222 102.738 46.0864 108.015 41.1688 109.268C39.8644 109.6 39.6916 109.805 39.6713 109.843C39.7069 109.935 40.1253 110.248 40.4302 110.475C41.4788 111.259 43.0644 112.443 42.9305 114.604C42.8425 116.024 42.358 117.081 41.4873 117.743C40.8141 118.234 39.9869 118.493 39.1394 118.48Z" fill="white"/>
<path d="M25.5724 78.4112C25.5724 78.4112 17.0889 96.2349 36.8476 104.451C36.8476 104.451 28.0219 89.7766 42.8206 77.7968L25.5724 78.4112Z" fill="#363E44"/>
<path d="M288.922 102.059H168.922C168.823 102.059 168.729 102.023 168.659 101.957C168.589 101.891 168.55 101.801 168.549 101.708L168.073 64.735C168.072 64.6883 168.081 64.6419 168.1 64.5985C168.118 64.5551 168.145 64.5156 168.179 64.4822C168.213 64.4488 168.254 64.4221 168.299 64.4038C168.345 64.3855 168.393 64.3758 168.442 64.3754C168.541 64.3762 168.635 64.4133 168.705 64.4788C168.776 64.5443 168.817 64.6333 168.82 64.727L169.291 101.348H288.922C289.017 101.354 289.106 101.395 289.17 101.461C289.235 101.527 289.271 101.614 289.271 101.704C289.271 101.794 289.235 101.881 289.17 101.947C289.106 102.013 289.017 102.053 288.922 102.059Z" fill="#EFBC73"/>
<path d="M187.808 72.7043H177.596V93.8644H187.808V72.7043Z" fill="#06442D"/>
<path d="M204.659 76.826H194.447V93.8644H204.659V76.826Z" fill="#EFBC73"/>
<path d="M221.511 85.3452H211.3V93.8644H221.511V85.3452Z" fill="#06442D"/>
<path d="M238.364 42.0381H228.153V93.8644H238.364V42.0381Z" fill="#EFBC73"/>
<path d="M255.216 67.012H245.005V93.8644H255.216V67.012Z" fill="#06442D"/>
<path d="M272.068 71.8707H261.857V93.8645H272.068V71.8707Z" fill="#EFBC73"/>
<path d="M288.92 45.1246H278.709V93.8628H288.92V45.1246Z" fill="#06442D"/>
<path d="M280.699 9.57239L248.176 17.9835L256.821 24.4725L225.05 60.0086L209.128 46.5211L171.123 98.2039L207.766 64.7173L223.695 78.9563L271.148 35.2315L279.684 41.6399L280.699 9.57239Z" fill="#D87355"/>
<path d="M257.532 262.457C257.532 262.457 262.511 265.521 266.412 277.642C247.666 287.448 238.198 292.192 238.011 291.876C238.008 291.87 238.008 291.862 238.011 291.855C237.34 290.506 236.903 289.061 236.717 287.579C235.289 275.822 251.034 266.432 252.345 265.67L257.532 262.457Z" fill="#E6D0BE"/>
<path d="M252.992 253.834L258.872 264.326C259.169 264.855 259.353 265.436 259.412 266.034C259.472 266.631 259.406 267.235 259.218 267.808C259.031 268.381 258.725 268.913 258.32 269.373C257.914 269.833 257.417 270.212 256.856 270.487C255.821 270.997 254.625 271.127 253.495 270.853C252.365 270.579 251.381 269.92 250.727 269L245.364 261.457L252.992 253.834Z" fill="#BC8271"/>
<path d="M246.34 149.282C246.34 149.282 229.341 185.353 228.643 218.653C227.976 250.456 246.34 266.627 246.34 266.627L256.83 256.867C256.83 256.867 244.448 204.538 269.907 181.851L273.304 152.431L246.34 149.282Z" fill="#B17A50"/>
<path d="M272.05 273.872C272.05 273.872 274.892 282.58 274.696 292.315H251.944C251.944 292.304 252.66 280.142 266.134 273.872H272.05Z" fill="#F2E6DC"/>
<path d="M276.369 265.424C276.227 265.778 273.864 272.164 272.573 275.657C272.213 276.646 271.466 277.465 270.488 277.943C269.51 278.421 268.376 278.522 267.322 278.224L267.215 278.192C265.16 277.547 263.983 275.488 264.437 273.474L266.809 262.961L276.369 265.424Z" fill="#BC8271"/>
<path d="M277.046 269.842C277.046 269.842 270.062 271.718 262.056 267.862C262.056 267.862 266.135 198.502 258.795 171.996L261.336 153.789L290.529 158.475C290.529 158.475 300.195 207.541 277.046 269.842Z" fill="#B17A50"/>
<path d="M261.889 190.949C261.8 190.949 261.714 190.918 261.647 190.863C261.579 190.808 261.534 190.733 261.52 190.649L260.22 182.872C260.213 182.826 260.215 182.779 260.226 182.733C260.238 182.688 260.258 182.645 260.287 182.607C260.345 182.531 260.433 182.48 260.53 182.465C260.628 182.451 260.728 182.473 260.808 182.529C260.888 182.584 260.942 182.667 260.957 182.76L262.258 190.538C262.266 190.584 262.264 190.631 262.253 190.676C262.241 190.722 262.221 190.764 262.192 190.802C262.163 190.84 262.127 190.872 262.085 190.896C262.043 190.921 261.997 190.937 261.948 190.944L261.889 190.949Z" fill="#363E44"/>
<path d="M284.09 110.361C284.09 110.361 269.949 105.918 248.161 110.461L240.406 162.01H294.754L284.09 110.361Z" fill="white"/>
<path d="M275.799 108.697C275.645 108.686 277.212 134.156 277.601 150.624C277.683 155.284 277.465 159.944 276.949 164.579L294.755 162.01C294.755 162.01 294.606 158.32 294.556 157.09C294.511 155.99 294.379 152.691 294.379 152.691L296.764 111.933C296.764 111.933 288.905 109.664 275.799 108.697Z" fill="#8B865C"/>
<path d="M286.232 149.954L297.351 153.699C299.362 154.376 301.572 154.277 303.507 153.423C305.442 152.569 306.95 151.027 307.706 149.129C310.615 141.893 310.562 133.881 307.559 126.68C305.286 121.278 301.835 115.466 296.763 111.94L286.232 149.954Z" fill="#8B865C"/>
<path d="M293.029 134.961C292.939 134.96 292.852 134.929 292.783 134.873C292.715 134.816 292.671 134.738 292.658 134.653L291.581 126.97C291.568 126.877 291.594 126.782 291.655 126.708C291.715 126.633 291.804 126.584 291.902 126.571C292 126.559 292.099 126.584 292.178 126.641C292.257 126.699 292.308 126.783 292.321 126.877L293.399 134.558C293.405 134.604 293.403 134.651 293.39 134.696C293.378 134.742 293.356 134.784 293.326 134.821C293.296 134.858 293.259 134.89 293.217 134.913C293.174 134.936 293.127 134.952 293.078 134.957L293.029 134.961Z" fill="#363E44"/>
<path d="M256.241 108.921L252.992 165.133L236.052 162.01C236.052 162.01 236.698 157.304 236.986 155.603C238.265 148.063 237.121 138.318 237.121 138.318L236.052 113.646C236.052 113.646 245.471 109.861 256.241 108.921Z" fill="#8B865C"/>
<path d="M236.052 113.644L239.83 136.884L225.152 144.684C223.802 145.402 222.313 145.851 220.775 146.003C219.237 146.156 217.683 146.009 216.207 145.571C214.731 145.134 213.364 144.415 212.189 143.459C211.014 142.502 210.055 141.328 209.372 140.008L207.471 132.531L236.052 113.644Z" fill="#8B865C"/>
<path d="M237.086 138.532C236.991 138.533 236.9 138.498 236.831 138.437C236.762 138.375 236.72 138.29 236.715 138.2L236.049 128.414C236.044 128.32 236.078 128.229 236.143 128.159C236.209 128.089 236.3 128.046 236.398 128.04C236.497 128.034 236.593 128.065 236.668 128.126C236.742 128.187 236.788 128.274 236.796 128.367L237.46 138.155C237.466 138.249 237.433 138.342 237.367 138.412C237.302 138.483 237.21 138.526 237.111 138.532H237.086Z" fill="#363E44"/>
<path d="M250.839 140.061H266.986L257.379 118.172H241.234L250.839 140.061Z" fill="#363E44"/>
<path d="M246.973 120.728C246.974 120.922 246.914 121.111 246.801 121.272C246.688 121.434 246.528 121.559 246.34 121.634C246.152 121.708 245.945 121.728 245.746 121.69C245.546 121.652 245.363 121.559 245.219 121.423C245.075 121.286 244.977 121.111 244.937 120.921C244.897 120.731 244.917 120.535 244.995 120.356C245.073 120.177 245.205 120.024 245.374 119.916C245.543 119.808 245.742 119.751 245.945 119.751C246.218 119.751 246.479 119.854 246.672 120.037C246.864 120.22 246.973 120.469 246.973 120.728Z" fill="#8B865C"/>
<path d="M299.845 138.37C293.376 135.854 278.447 129.214 276.963 128.62C274.188 127.512 259.135 121.931 258.054 123.913C257.538 124.86 260.387 126.059 261.363 126.438C260.416 126.503 256.753 126.374 256.484 127.541C256.165 128.914 260.505 129.705 260.565 129.757C259.596 129.73 255.745 129.47 255.508 130.337C255.198 131.466 258.703 132.734 259.772 133.066C259.613 133.169 255.994 132.421 255.566 133.748C255.249 134.725 258.468 135.881 259.863 136.388C262.327 137.373 290.338 150.327 295.866 152.101C298.031 152.796 301.639 141.519 299.845 138.37Z" fill="#BC8271"/>
<path d="M299.929 138.607C299.88 138.606 299.831 138.597 299.785 138.579C297.71 137.747 289.218 134.225 285.976 132.848C285.928 132.831 285.885 132.805 285.848 132.771C285.811 132.737 285.782 132.697 285.763 132.652C285.743 132.607 285.734 132.559 285.734 132.511C285.735 132.462 285.746 132.414 285.768 132.37C285.789 132.326 285.819 132.286 285.857 132.253C285.894 132.221 285.939 132.196 285.987 132.18C286.035 132.165 286.087 132.159 286.137 132.162C286.188 132.166 286.238 132.18 286.283 132.203C289.52 133.587 298.003 137.096 300.075 137.926C300.154 137.959 300.219 138.016 300.259 138.088C300.299 138.161 300.311 138.244 300.294 138.324C300.277 138.405 300.231 138.477 300.165 138.529C300.099 138.581 300.015 138.609 299.929 138.61V138.607Z" fill="#363E44"/>
<path d="M266.48 127.877C266.425 127.876 266.371 127.865 266.322 127.843C264.759 127.155 263.072 126.761 261.352 126.682C261.253 126.677 261.16 126.636 261.094 126.566C261.027 126.497 260.992 126.405 260.996 126.311C261.003 126.217 261.048 126.13 261.121 126.067C261.193 126.004 261.289 125.97 261.388 125.972C262.036 126.001 262.681 126.074 263.319 126.188C264.464 126.394 265.578 126.733 266.635 127.198C266.712 127.232 266.774 127.29 266.812 127.363C266.85 127.435 266.86 127.517 266.842 127.596C266.824 127.675 266.778 127.746 266.712 127.797C266.646 127.848 266.564 127.876 266.48 127.877Z" fill="#363E44"/>
<path d="M264.173 131.073C264.119 131.073 264.065 131.061 264.017 131.039C263.014 130.599 261.959 130.278 260.874 130.083C260.744 130.06 260.614 130.038 260.486 130.018C260.389 130.003 260.301 129.952 260.243 129.876C260.185 129.8 260.161 129.705 260.176 129.612C260.192 129.519 260.246 129.435 260.326 129.38C260.406 129.325 260.506 129.302 260.603 129.317C260.737 129.336 260.873 129.359 261.012 129.384C262.157 129.59 263.272 129.929 264.33 130.394C264.407 130.428 264.469 130.487 264.507 130.559C264.544 130.632 264.555 130.714 264.536 130.793C264.518 130.872 264.472 130.943 264.406 130.994C264.34 131.045 264.258 131.072 264.173 131.073Z" fill="#363E44"/>
<path d="M261.938 134.15C261.884 134.15 261.831 134.139 261.782 134.117C261.126 133.829 260.446 133.591 259.75 133.406C259.7 133.396 259.652 133.376 259.61 133.348C259.568 133.32 259.533 133.284 259.507 133.243C259.48 133.201 259.463 133.155 259.455 133.106C259.448 133.058 259.452 133.009 259.466 132.962C259.479 132.915 259.503 132.871 259.535 132.833C259.567 132.795 259.607 132.764 259.653 132.742C259.698 132.719 259.748 132.705 259.799 132.702C259.85 132.698 259.901 132.705 259.95 132.721C260.684 132.916 261.401 133.167 262.094 133.471C262.171 133.505 262.233 133.563 262.271 133.636C262.308 133.708 262.319 133.791 262.3 133.87C262.282 133.949 262.236 134.02 262.17 134.07C262.104 134.121 262.022 134.149 261.937 134.15H261.938Z" fill="#363E44"/>
<path d="M223.202 128.744C218.318 124.057 213.246 118.101 210.458 115.405C204.708 109.864 195.381 102.482 194.307 103.738C193.701 104.454 194.754 105.712 197.807 108.898C197.484 108.884 196.494 109.073 196.045 109.824C195.38 110.937 196.176 111.696 196.215 111.795C196.106 111.782 194.86 111.695 194.275 112.367C193.625 113.125 193.736 113.951 194.106 114.625C193.835 114.599 192.662 114.676 192.142 115.35C191.465 116.224 191.961 117.331 192.634 117.959C193.867 119.114 197.317 122.186 198.925 124.034C200.926 126.332 207.832 135.198 213.548 141.729C217.81 146.602 230.462 135.711 223.202 128.744Z" fill="#BC8271"/>
<path d="M203.975 121.557C203.904 121.558 203.834 121.539 203.774 121.503C203.714 121.467 203.666 121.415 203.636 121.354C202.826 119.728 202.869 118.237 202.899 117.148C202.931 116.019 202.921 115.47 202.345 115.242C201.612 114.954 200.926 114.31 200.312 113.33C200.196 113.143 200.141 112.927 200.157 112.711C200.172 112.494 200.257 112.287 200.399 112.118C200.542 111.948 200.735 111.824 200.954 111.762C201.172 111.7 201.405 111.703 201.622 111.77L206.675 113.344C206.722 113.359 206.765 113.382 206.802 113.412C206.839 113.443 206.87 113.48 206.892 113.521C206.914 113.563 206.928 113.608 206.931 113.655C206.935 113.701 206.929 113.748 206.914 113.793C206.899 113.837 206.874 113.878 206.843 113.913C206.811 113.949 206.772 113.978 206.728 113.999C206.684 114.02 206.637 114.033 206.588 114.036C206.539 114.04 206.49 114.034 206.443 114.02L201.392 112.446C201.319 112.422 201.24 112.421 201.166 112.443C201.093 112.464 201.028 112.507 200.982 112.565C200.933 112.62 200.905 112.688 200.9 112.759C200.894 112.83 200.913 112.901 200.953 112.962C201.483 113.797 202.066 114.359 202.647 114.586C203.724 115.01 203.695 116.01 203.663 117.166C203.633 118.24 203.595 119.577 204.327 121.049C204.348 121.091 204.36 121.137 204.363 121.183C204.365 121.23 204.358 121.277 204.341 121.32C204.325 121.364 204.299 121.405 204.266 121.439C204.233 121.474 204.194 121.502 204.149 121.522C204.095 121.547 204.035 121.56 203.975 121.557Z" fill="#363E44"/>
<path d="M195.468 119.599C195.419 119.6 195.371 119.591 195.326 119.573C195.281 119.555 195.241 119.529 195.207 119.496C195.172 119.463 195.144 119.424 195.126 119.381C195.107 119.338 195.097 119.291 195.097 119.245C195.097 119.198 195.107 119.152 195.126 119.108C195.144 119.065 195.172 119.026 195.207 118.993C195.611 118.6 195.845 118.077 195.861 117.528C195.878 116.978 195.676 116.443 195.297 116.029L194.595 115.27C194.531 115.204 194.495 115.117 194.495 115.027C194.495 114.937 194.531 114.85 194.595 114.784C194.659 114.718 194.748 114.678 194.842 114.671C194.936 114.665 195.03 114.693 195.104 114.749L196.779 115.932C197.047 116.123 197.381 116.209 197.714 116.175C198.046 116.141 198.353 115.988 198.573 115.748C198.792 115.507 198.908 115.197 198.897 114.878C198.886 114.56 198.749 114.257 198.514 114.031L196.564 112.146C196.528 112.114 196.498 112.076 196.478 112.034C196.457 111.991 196.445 111.945 196.443 111.898C196.442 111.852 196.449 111.805 196.466 111.761C196.483 111.717 196.509 111.677 196.543 111.642C196.576 111.608 196.616 111.58 196.661 111.56C196.705 111.541 196.754 111.53 196.803 111.528C196.852 111.526 196.901 111.533 196.947 111.549C196.993 111.566 197.036 111.59 197.072 111.622L198.11 112.428C198.303 112.582 198.551 112.66 198.802 112.646C199.053 112.631 199.289 112.526 199.461 112.351C199.634 112.176 199.729 111.945 199.727 111.705C199.726 111.466 199.628 111.236 199.454 111.062L198.122 109.708C198.063 109.638 198.034 109.549 198.041 109.459C198.048 109.369 198.09 109.285 198.16 109.224C198.229 109.163 198.32 109.129 198.414 109.129C198.509 109.129 198.6 109.163 198.669 109.224L199.999 110.579C200.223 110.805 200.375 111.088 200.437 111.394C200.498 111.699 200.468 112.015 200.349 112.305C200.23 112.595 200.027 112.846 199.763 113.03C199.5 113.215 199.187 113.324 198.861 113.346L199.05 113.53C199.409 113.873 199.622 114.331 199.65 114.814C199.677 115.298 199.517 115.774 199.199 116.153C198.882 116.531 198.429 116.785 197.927 116.867C197.426 116.948 196.91 116.851 196.479 116.594C196.645 117.095 196.664 117.63 196.535 118.141C196.406 118.653 196.134 119.121 195.747 119.496C195.711 119.531 195.667 119.558 195.619 119.576C195.571 119.594 195.519 119.602 195.468 119.599Z" fill="#363E44"/>
<path d="M260.757 109.048L263.088 110.292C263.9 110.725 264.805 110.977 265.734 111.027C266.664 111.077 267.593 110.925 268.451 110.582C269.309 110.239 270.074 109.714 270.687 109.047C271.299 108.379 271.744 107.588 271.987 106.733L274.765 96.9525C275.781 95.2545 274.753 96.2478 272.969 95.2835C271.186 94.3192 266.082 92.7437 265.069 94.4417L260.757 109.048Z" fill="#BC8271"/>
<path d="M258.096 102.751C259.509 105.17 267.501 103.169 267.501 103.169L274.446 98.6779C275.294 96.9905 275.402 95.0518 274.748 93.2883C274.093 91.5247 272.73 90.0809 270.957 89.2743C269.185 88.4676 267.148 88.3644 265.296 88.9872C263.443 89.61 261.926 90.9079 261.079 92.5953C261.079 92.5953 256.658 100.286 258.096 102.751Z" fill="#BC8271"/>
<path d="M261.001 94.6175C261.001 94.6175 258.188 95.6366 258.04 96.1752C257.871 96.8202 259.77 98.128 259.77 98.128C259.77 98.128 260.954 94.6046 261.001 94.6175Z" fill="#BC8271"/>
<path d="M267.373 95.6721C266.745 95.1556 266.004 94.7783 265.204 94.5675C264.935 94.5014 264.887 96.6768 265.174 96.6235C265.97 96.4615 266.721 96.1369 267.373 95.6721Z" fill="white"/>
<mask id="mask1_1_356" style="mask-type:luminance" maskUnits="userSpaceOnUse" x="261" y="94" width="7" height="3">
<path d="M267.372 95.6721C267.372 95.6721 266.044 94.503 264.352 94.4466C262.66 94.3902 261.248 95.4706 261.248 95.4706C261.248 95.4706 262.578 96.6397 264.269 96.6961C265.959 96.7526 267.372 95.6721 267.372 95.6721Z" fill="white"/>
</mask>
<g mask="url(#mask1_1_356)">
<path d="M265.165 94.5014C264.942 94.1424 264.613 93.8543 264.219 93.6734C263.824 93.4925 263.382 93.4271 262.949 93.4853C262.515 93.5436 262.109 93.7229 261.783 94.0006C261.456 94.2783 261.224 94.642 261.114 95.0456C261.005 95.4492 261.024 95.8746 261.168 96.268C261.313 96.6615 261.576 97.0053 261.926 97.256C262.276 97.5067 262.696 97.6531 263.133 97.6766C263.57 97.7001 264.005 97.5996 264.382 97.3879C264.633 97.2475 264.852 97.0614 265.027 96.8403C265.202 96.6191 265.33 96.3673 265.402 96.0992C265.475 95.8311 265.492 95.552 265.451 95.2778C265.41 95.0036 265.313 94.7398 265.165 94.5014Z" fill="#363E44"/>
</g>
<path d="M278.863 92.1212C278.863 92.1212 278.672 100.299 272.66 100.829L271.813 99.273L268.256 99.3326L270.949 96.3204C271.157 96.0344 271.295 95.7081 271.354 95.365C271.413 95.022 271.391 94.6707 271.291 94.3366C271.19 94.0025 271.012 93.6938 270.771 93.4329C270.53 93.1719 270.231 92.9652 269.895 92.8276L263.651 90.2668L265.286 87.1674C270.553 86.5418 275.184 87.8608 278.863 92.1212Z" fill="#363E44"/>
<path d="M272.404 88.2737C272.551 88.3812 272.719 88.46 272.898 88.5057C273.077 88.5513 273.264 88.5629 273.448 88.5397C273.632 88.5164 273.81 88.4589 273.97 88.3704C274.131 88.2819 274.271 88.1641 274.384 88.0237C274.858 87.4335 274.99 86.2805 274.37 85.8306C273.75 85.3807 272.617 85.7984 272.143 86.3886C271.915 86.6715 271.814 87.029 271.863 87.3825C271.912 87.736 272.107 88.0565 272.404 88.2737Z" fill="#363E44"/>
<path d="M271.276 88.2076C271.645 88.2589 272.021 88.169 272.322 87.9576C272.622 87.7461 272.822 87.4302 272.878 87.0788C272.992 86.3434 272.519 85.2759 271.747 85.1679C271.667 85.1595 271.587 85.1717 271.515 85.2033C269.321 86.1177 269.943 88.0205 271.276 88.2076Z" fill="#363E44"/>
<path d="M268.849 88.085C269.1 88.0785 269.348 88.0248 269.578 87.9271C269.808 87.8293 270.016 87.6893 270.189 87.5151C270.362 87.3409 270.497 87.1359 270.587 86.9119C270.677 86.6879 270.719 86.4492 270.712 86.2096C270.682 85.2033 269.784 83.8843 268.728 83.9149C267.673 83.9455 266.855 85.3098 266.885 86.316C266.9 86.7982 267.115 87.2552 267.483 87.5868C267.851 87.9184 268.342 88.0976 268.849 88.085Z" fill="#363E44"/>
<path d="M274.379 89.2831C274.523 89.3951 274.688 89.479 274.865 89.5301C275.043 89.5812 275.229 89.5984 275.414 89.5809C275.598 89.5634 275.778 89.5114 275.941 89.4279C276.104 89.3445 276.249 89.2312 276.366 89.0945C276.861 88.5188 277.03 87.3706 276.427 86.9014C275.824 86.4321 274.676 86.8159 274.181 87.3851C274.062 87.5218 273.973 87.6795 273.919 87.8491C273.864 88.0188 273.846 88.197 273.864 88.3735C273.883 88.55 273.938 88.7213 274.026 88.8774C274.114 89.0336 274.235 89.1715 274.379 89.2831Z" fill="#363E44"/>
<path d="M267.098 87.7076C267.436 87.4216 267.641 87.0196 267.667 86.5899C267.694 86.1603 267.54 85.7381 267.24 85.4162C266.615 84.7469 265.208 84.3357 264.508 84.9324C263.808 85.529 264.067 86.9046 264.693 87.5738C264.993 87.8951 265.415 88.0897 265.866 88.1148C266.317 88.1399 266.76 87.9934 267.098 87.7076Z" fill="#363E44"/>
<path d="M275.787 90.4264C276.087 90.7662 276.518 90.9783 276.983 91.0161C277.448 91.0539 277.91 90.9143 278.266 90.628C279.01 90.0313 279.495 88.6623 278.868 87.9544C278.241 87.2464 276.744 87.4706 276 88.0656C275.643 88.352 275.42 88.7614 275.38 89.204C275.34 89.6466 275.486 90.0862 275.787 90.4264Z" fill="#363E44"/>
<path d="M277.281 91.3359C277.592 92.5469 279.583 92.9485 280.318 90.8376C280.344 90.7678 280.349 90.6924 280.333 90.6199C280.152 89.9185 279.024 89.5798 278.287 89.7524C277.933 89.8355 277.628 90.049 277.439 90.3459C277.251 90.6428 277.194 90.9989 277.281 91.3359Z" fill="#363E44"/>
<path d="M265.836 89.3831C266.112 88.929 266.188 88.3892 266.046 87.8822C265.904 87.3751 265.557 86.9423 265.081 86.6788C264.088 86.1321 262.297 86.1676 261.723 87.1126C261.149 88.0575 262.004 89.5556 262.997 90.1023C263.233 90.2326 263.494 90.3174 263.764 90.3517C264.034 90.3861 264.309 90.3694 264.573 90.3026C264.837 90.2359 265.084 90.1203 265.301 89.9625C265.517 89.8047 265.699 89.6078 265.836 89.3831Z" fill="#363E44"/>
<path d="M275.7 98.815C275.784 99.3314 275.691 99.8598 275.435 100.322C275.179 100.784 274.774 101.156 274.279 101.382C273.784 101.608 273.226 101.676 272.687 101.577C272.148 101.478 271.657 101.216 271.286 100.831C270.915 100.446 270.684 99.9571 270.628 99.4373C270.571 98.9176 270.692 98.3943 270.972 97.9448C271.252 97.4953 271.676 97.1435 272.182 96.9412C272.688 96.739 273.25 96.6972 273.783 96.8219C274.273 96.937 274.717 97.1877 275.058 97.5424C275.399 97.897 275.623 98.3398 275.7 98.815Z" fill="#BC8271"/>
<path d="M258.801 97.3589L256.853 102.987C256.789 103.172 256.765 103.368 256.783 103.563C256.801 103.757 256.86 103.946 256.956 104.119C257.052 104.291 257.184 104.443 257.344 104.566C257.503 104.689 257.687 104.78 257.884 104.833C258.094 104.89 258.321 104.948 258.562 105.007C260.63 105.513 262.799 105.508 264.864 104.993C266.929 104.477 268.822 103.468 270.362 102.061L270.779 101.353C271.084 100.835 271.261 100.258 271.296 99.6653C271.331 99.0725 271.223 98.48 270.981 97.933L269.602 98.0233C269.602 98.0233 267.361 100.571 266.107 100.281C264.853 99.9906 263.156 98.1829 258.801 97.3589Z" fill="#363E44"/>
<path d="M261.318 100.436C261.076 100.434 260.838 100.375 260.628 100.262C260.417 100.149 260.24 99.9867 260.113 99.7906C260.086 99.7508 260.067 99.7061 260.058 99.6592C260.049 99.6123 260.05 99.5642 260.061 99.5177C260.071 99.4711 260.092 99.4271 260.121 99.3883C260.15 99.3494 260.187 99.3165 260.229 99.2915C260.272 99.2664 260.32 99.2498 260.369 99.2425C260.418 99.2353 260.469 99.2375 260.518 99.2492C260.566 99.2609 260.612 99.2817 260.652 99.3104C260.692 99.3391 260.725 99.3752 260.75 99.4165C260.816 99.5197 260.911 99.6029 261.025 99.6561C261.138 99.7093 261.266 99.7304 261.392 99.7168C261.517 99.7032 261.637 99.6556 261.735 99.5795C261.833 99.5034 261.907 99.402 261.946 99.2875C261.981 99.2024 262.05 99.1336 262.137 99.0952C262.224 99.0568 262.324 99.0518 262.415 99.0812C262.506 99.1106 262.581 99.1722 262.626 99.2532C262.67 99.3343 262.681 99.4285 262.654 99.5165C262.568 99.7539 262.415 99.964 262.211 100.123C262.007 100.283 261.76 100.385 261.499 100.42C261.439 100.429 261.378 100.434 261.318 100.436Z" fill="#BC8271"/>
<path d="M271.469 94.0837C271.377 94.0845 271.288 94.0532 271.219 93.9957C271.151 93.9382 271.106 93.8586 271.095 93.772C271.084 93.6854 271.107 93.598 271.159 93.5264C271.212 93.4548 271.29 93.4041 271.379 93.3839L275.016 92.5196C275.11 92.503 275.206 92.521 275.287 92.5701C275.367 92.6191 275.424 92.6955 275.447 92.7835C275.471 92.8715 275.458 92.9646 275.411 93.0438C275.364 93.123 275.288 93.1824 275.197 93.2097L271.558 94.0741C271.529 94.0804 271.499 94.0836 271.469 94.0837Z" fill="#BC8271"/>
<path d="M118.254 291.191H242.081L222.768 189.39H142.347L118.254 291.191Z" fill="#06442D"/>
<path d="M170.349 282.791C170.266 282.791 170.185 282.764 170.119 282.714C170.053 282.665 170.007 282.596 169.987 282.519C166.272 267.683 147.748 193.615 148.002 192.304C148.016 192.21 148.069 192.126 148.148 192.07C148.228 192.013 148.327 191.989 148.425 192.003C148.523 192.016 148.611 192.066 148.67 192.142C148.73 192.217 148.755 192.312 148.741 192.405C148.773 194.293 163.121 252.041 170.714 282.352C170.737 282.444 170.72 282.541 170.669 282.621C170.617 282.702 170.534 282.759 170.438 282.781C170.409 282.788 170.379 282.791 170.349 282.791Z" fill="#396554"/>
<path d="M123.883 287.26C123.801 287.26 123.72 287.235 123.654 287.187C123.589 287.139 123.542 287.072 123.52 286.996C123.499 286.919 123.505 286.839 123.538 286.766C123.57 286.694 123.627 286.634 123.699 286.595L144.335 275.446V194.745C144.341 194.655 144.383 194.57 144.453 194.509C144.522 194.447 144.614 194.413 144.709 194.413C144.803 194.413 144.895 194.447 144.964 194.509C145.034 194.57 145.076 194.655 145.082 194.745V275.651C145.082 275.713 145.065 275.775 145.032 275.83C144.999 275.884 144.951 275.929 144.894 275.96L124.068 287.211C124.012 287.243 123.948 287.259 123.883 287.26Z" fill="#396554"/>
<path d="M162.438 195.819C162.812 195.819 163.17 195.678 163.434 195.426C163.698 195.175 163.846 194.834 163.846 194.479V175.101C163.846 172.921 164.755 170.831 166.373 169.289C167.991 167.747 170.186 166.879 172.475 166.877H189.549C191.84 166.877 194.038 167.743 195.658 169.285C197.278 170.828 198.188 172.92 198.188 175.101V194.479C198.182 194.659 198.213 194.838 198.281 195.006C198.349 195.174 198.451 195.327 198.583 195.456C198.714 195.586 198.871 195.689 199.045 195.759C199.219 195.829 199.406 195.865 199.595 195.865C199.784 195.865 199.971 195.829 200.145 195.759C200.319 195.689 200.476 195.586 200.608 195.456C200.739 195.327 200.841 195.174 200.909 195.006C200.977 194.838 201.008 194.659 201.002 194.479V175.101C200.998 172.212 199.791 169.443 197.646 167.401C195.5 165.359 192.591 164.21 189.557 164.206H172.475C169.441 164.21 166.532 165.359 164.387 167.401C162.241 169.443 161.034 172.212 161.031 175.101V194.479C161.031 194.834 161.179 195.175 161.443 195.426C161.707 195.678 162.065 195.819 162.438 195.819Z" fill="#776E42"/>
</svg>
