<svg width="36" height="36" viewBox="0 0 36 36" fill="none" xmlns="http://www.w3.org/2000/svg">
<circle cx="18" cy="18" r="18" fill="#E5AB79"/>
<path fill-rule="evenodd" clip-rule="evenodd" d="M10.9474 9.91916H20.7666C21.71 9.91916 22.4819 10.6911 22.4819 11.6345V16.4789H22.3606C21.7724 16.4789 21.2922 16.9591 21.2922 17.5474V18.1102C21.2922 18.4103 21.4172 18.6823 21.6178 18.8768C21.4172 19.0712 21.2922 19.3433 21.2922 19.6433V20.2061C21.2922 20.5063 21.4172 20.7783 21.6178 20.9728C21.4172 21.1672 21.2922 21.4392 21.2922 21.7394V22.3022C21.2922 22.6023 21.4172 22.8743 21.6178 23.0688C21.4172 23.2632 21.2922 23.5352 21.2922 23.8353V24.3981C21.2922 24.6983 21.4172 24.9703 21.6178 25.1648C21.4459 25.3314 21.3294 25.5551 21.2997 25.8046C21.1277 25.8613 20.9477 25.8902 20.7666 25.8901H10.9474C10.0039 25.8901 9.23199 25.1182 9.23199 24.1747V11.6345C9.23199 10.6911 10.0039 9.91916 10.9474 9.91916ZM22.3606 26.9589H27.1789C27.4339 26.9589 27.6437 26.7492 27.6437 26.4942V25.9314C27.6437 25.6763 27.4339 25.4666 27.1789 25.4666H22.3606C22.1056 25.4666 21.8958 25.6764 21.8958 25.9314V26.4942C21.8958 26.7492 22.1056 26.9589 22.3606 26.9589ZM22.3606 24.863H27.1789C27.4339 24.863 27.6437 24.6532 27.6437 24.3982V23.8354C27.6437 23.5803 27.4339 23.3706 27.1789 23.3706H22.3606C22.1056 23.3706 21.8958 23.5804 21.8958 23.8354V24.3982C21.8958 24.6532 22.1056 24.863 22.3606 24.863ZM22.3606 20.6709H27.1789C27.4339 20.6709 27.6437 20.4612 27.6437 20.2061V19.6433C27.6437 19.3883 27.4339 19.1786 27.1789 19.1786H22.3606C22.1056 19.1786 21.8958 19.3883 21.8958 19.6433V20.2061C21.8958 20.4612 22.1056 20.6709 22.3606 20.6709ZM22.3606 22.7669H27.1789C27.4339 22.7669 27.6437 22.5572 27.6437 22.3022V21.7394C27.6437 21.4843 27.4339 21.2746 27.1789 21.2746H22.3606C22.1056 21.2746 21.8958 21.4844 21.8958 21.7394V22.3022C21.8958 22.5572 22.1056 22.7669 22.3606 22.7669ZM22.3606 18.5749H27.1789C27.4339 18.5749 27.6437 18.3652 27.6437 18.1102V17.5474C27.6437 17.2923 27.4339 17.0826 27.1789 17.0826H22.3606C22.1056 17.0826 21.8958 17.2924 21.8958 17.5474V18.1102C21.8958 18.3652 22.1056 18.5749 22.3606 18.5749ZM11.5192 12.3813C11.302 12.3813 11.1248 12.5585 11.1248 12.7757V14.3235C11.1248 14.5407 11.302 14.7178 11.5192 14.7178H20.1948C20.412 14.7178 20.5891 14.5407 20.5891 14.3235V12.7757C20.5891 12.5585 20.412 12.3813 20.1948 12.3813H11.5192ZM11.8815 16.5959C11.6643 16.5959 11.4872 16.773 11.4872 16.9902V17.5029C11.4872 17.7201 11.6643 17.8972 11.8815 17.8972H13.3554C13.5726 17.8972 13.7497 17.7201 13.7497 17.5029V16.9902C13.7497 16.773 13.5726 16.5959 13.3554 16.5959H11.8815ZM18.3586 22.1266C18.1414 22.1266 17.9642 22.3037 17.9642 22.5209V23.0336C17.9642 23.2508 18.1414 23.4279 18.3586 23.4279H19.8324C20.0496 23.4279 20.2268 23.2508 20.2268 23.0336V22.5209C20.2268 22.3037 20.0496 22.1266 19.8324 22.1266H18.3586ZM15.12 22.1266C14.9028 22.1266 14.7257 22.3037 14.7257 22.5209V23.0336C14.7257 23.2508 14.9028 23.4279 15.12 23.4279H16.5939C16.8111 23.4279 16.9882 23.2508 16.9882 23.0336V22.5209C16.9882 22.3037 16.8111 22.1266 16.5939 22.1266H15.12ZM11.8815 22.1266C11.6643 22.1266 11.4872 22.3037 11.4872 22.5209V23.0336C11.4872 23.2508 11.6643 23.4279 11.8815 23.4279H13.3554C13.5726 23.4279 13.7497 23.2508 13.7497 23.0336V22.5209C13.7497 22.3037 13.5726 22.1266 13.3554 22.1266H11.8815ZM18.3586 19.3612C18.1414 19.3612 17.9642 19.5384 17.9642 19.7556V20.2682C17.9642 20.4855 18.1414 20.6626 18.3586 20.6626H19.8324C20.0496 20.6626 20.2268 20.4855 20.2268 20.2682V19.7556C20.2268 19.5384 20.0496 19.3612 19.8324 19.3612H18.3586ZM15.12 19.3612C14.9028 19.3612 14.7257 19.5384 14.7257 19.7556V20.2682C14.7257 20.4855 14.9028 20.6626 15.12 20.6626H16.5939C16.8111 20.6626 16.9882 20.4855 16.9882 20.2682V19.7556C16.9882 19.5384 16.8111 19.3612 16.5939 19.3612H15.12ZM11.8815 19.3612C11.6643 19.3612 11.4872 19.5384 11.4872 19.7556V20.2682C11.4872 20.4855 11.6643 20.6626 11.8815 20.6626H13.3554C13.5726 20.6626 13.7497 20.4855 13.7497 20.2682V19.7556C13.7497 19.5384 13.5726 19.3612 13.3554 19.3612H11.8815ZM18.3586 16.5959C18.1414 16.5959 17.9642 16.773 17.9642 16.9902V17.5029C17.9642 17.7201 18.1414 17.8972 18.3586 17.8972H19.8324C20.0496 17.8972 20.2268 17.7201 20.2268 17.5029V16.9902C20.2268 16.773 20.0496 16.5959 19.8324 16.5959H18.3586ZM15.12 16.5959C14.9028 16.5959 14.7257 16.773 14.7257 16.9902V17.5029C14.7257 17.7201 14.9028 17.8972 15.12 17.8972H16.5939C16.8111 17.8972 16.9882 17.7201 16.9882 17.5029V16.9902C16.9882 16.773 16.8111 16.5959 16.5939 16.5959H15.12Z" fill="white"/>
</svg>
