<svg width="19" height="11" viewBox="0 0 19 11" fill="none" xmlns="http://www.w3.org/2000/svg">
<path d="M18.125 5.21878C18.125 5.02815 18.0493 4.84534 17.9145 4.71055C17.7797 4.57575 17.5969 4.50003 17.4062 4.50003H3.32881L6.41369 1.41515C6.54461 1.2796 6.61706 1.09804 6.61542 0.909583C6.61378 0.721129 6.53819 0.540857 6.40493 0.407595C6.27167 0.274333 6.0914 0.198744 5.90294 0.197106C5.71449 0.195469 5.53293 0.267915 5.39737 0.398841L1.08487 4.71134C1.01837 4.77746 0.965586 4.85608 0.929567 4.94267C0.893549 5.02926 0.875004 5.12212 0.874998 5.2159V5.21878C0.874998 5.31222 0.893684 5.40565 0.931061 5.49334C0.966883 5.58048 1.01966 5.65963 1.08631 5.72622L5.39881 10.0387C5.53437 10.1696 5.71593 10.2421 5.90438 10.2405C6.09283 10.2388 6.27311 10.1632 6.40637 10.03C6.53963 9.8967 6.61522 9.71643 6.61686 9.52797C6.6185 9.33952 6.54605 9.15796 6.41512 9.0224L3.32881 5.93753H17.4062C17.5969 5.93753 17.7797 5.8618 17.9145 5.72701C18.0493 5.59222 18.125 5.4094 18.125 5.21878Z" fill="black"/>
</svg>
