<svg width="33" height="31" viewBox="0 0 33 31" fill="none" xmlns="http://www.w3.org/2000/svg">
<path fill-rule="evenodd" clip-rule="evenodd" d="M3.27613 6.0293C3.00636 6.02932 2.74764 6.12911 2.55688 6.30671C2.36612 6.48432 2.25894 6.72519 2.25891 6.97636V9.81756C2.25891 10.0687 2.36608 10.3096 2.55685 10.4872C2.74761 10.6648 3.00635 10.7646 3.27613 10.7646C3.54591 10.7646 3.80465 10.6648 3.99541 10.4872C4.18618 10.3096 4.29335 10.0687 4.29335 9.81756V7.92343H6.32779C6.59757 7.92343 6.85631 7.82365 7.04707 7.64604C7.23784 7.46843 7.34501 7.22754 7.34501 6.97636C7.34501 6.72519 7.23784 6.48429 7.04707 6.30669C6.85631 6.12908 6.59757 6.0293 6.32779 6.0293H3.27613ZM26.6722 6.0293C26.4024 6.0293 26.1437 6.12908 25.9529 6.30669C25.7621 6.48429 25.655 6.72519 25.655 6.97636C25.655 7.22754 25.7621 7.46843 25.9529 7.64604C26.1437 7.82365 26.4024 7.92343 26.6722 7.92343H28.7066V9.81756C28.7066 10.0687 28.8138 10.3096 29.0046 10.4872C29.1953 10.6648 29.4541 10.7646 29.7238 10.7646C29.9936 10.7646 30.2524 10.6648 30.4431 10.4872C30.6339 10.3096 30.7411 10.0687 30.7411 9.81756V6.97636C30.741 6.72519 30.6338 6.48432 30.4431 6.30671C30.2523 6.12911 29.9936 6.02932 29.7238 6.0293H26.6722ZM29.7238 20.2353C29.4541 20.2353 29.1953 20.3351 29.0046 20.5127C28.8138 20.6903 28.7066 20.9312 28.7066 21.1824V23.0765H26.6722C26.4024 23.0765 26.1437 23.1763 25.9529 23.3539C25.7621 23.5315 25.655 23.7724 25.655 24.0236C25.655 24.2747 25.7621 24.5156 25.9529 24.6932C26.1437 24.8708 26.4024 24.9706 26.6722 24.9706H29.7238C29.9936 24.9706 30.2523 24.8708 30.4431 24.6932C30.6338 24.5156 30.741 24.2747 30.7411 24.0236V21.1824C30.7411 20.9312 30.6339 20.6903 30.4431 20.5127C30.2524 20.3351 29.9936 20.2353 29.7238 20.2353ZM3.27613 20.2353C3.00635 20.2353 2.74761 20.3351 2.55685 20.5127C2.36608 20.6903 2.25891 20.9312 2.25891 21.1824V24.0236C2.25894 24.2747 2.36612 24.5156 2.55688 24.6932C2.74764 24.8708 3.00636 24.9706 3.27613 24.9706H6.32779C6.59757 24.9706 6.85631 24.8708 7.04707 24.6932C7.23784 24.5156 7.34501 24.2747 7.34501 24.0236C7.34501 23.7724 7.23784 23.5315 7.04707 23.3539C6.85631 23.1763 6.59757 23.0765 6.32779 23.0765H4.29335V21.1824C4.29335 20.9312 4.18618 20.6903 3.99541 20.5127C3.80465 20.3351 3.54591 20.2353 3.27613 20.2353ZM7.34501 9.81756C7.07522 9.81756 6.81649 9.91734 6.62572 10.095C6.43496 10.2726 6.32779 10.5135 6.32779 10.7646V20.2353C6.32779 20.4865 6.43496 20.7274 6.62572 20.905C6.81649 21.0826 7.07522 21.1824 7.34501 21.1824C7.61479 21.1824 7.87353 21.0826 8.06429 20.905C8.25506 20.7274 8.36223 20.4865 8.36223 20.2353V10.7646C8.36223 10.5135 8.25506 10.2726 8.06429 10.095C7.87353 9.91734 7.61479 9.81756 7.34501 9.81756ZM10.3967 9.81756C10.1269 9.81756 9.86815 9.91734 9.67738 10.095C9.48662 10.2726 9.37945 10.5135 9.37945 10.7646V20.2353C9.37945 20.4865 9.48662 20.7274 9.67738 20.905C9.86815 21.0826 10.1269 21.1824 10.3967 21.1824C10.6664 21.1824 10.9252 21.0826 11.1159 20.905C11.3067 20.7274 11.4139 20.4865 11.4139 20.2353V10.7646C11.4139 10.5135 11.3067 10.2726 11.1159 10.095C10.9252 9.91734 10.6664 9.81756 10.3967 9.81756ZM13.4483 9.81756C13.1785 9.81756 12.9198 9.91734 12.729 10.095C12.5383 10.2726 12.4311 10.5135 12.4311 10.7646V20.2353C12.4311 20.4865 12.5383 20.7274 12.729 20.905C12.9198 21.0826 13.1785 21.1824 13.4483 21.1824C13.7181 21.1824 13.9768 21.0826 14.1676 20.905C14.3584 20.7274 14.4655 20.4865 14.4655 20.2353V10.7646C14.4655 10.5135 14.3584 10.2726 14.1676 10.095C13.9768 9.91734 13.7181 9.81756 13.4483 9.81756ZM16.5 9.81756C16.2302 9.81756 15.9715 9.91734 15.7807 10.095C15.5899 10.2726 15.4828 10.5135 15.4828 10.7646V20.2353C15.4828 20.4865 15.5899 20.7274 15.7807 20.905C15.9715 21.0826 16.2302 21.1824 16.5 21.1824C16.7698 21.1824 17.0285 21.0826 17.2193 20.905C17.41 20.7274 17.5172 20.4865 17.5172 20.2353V10.7646C17.5172 10.5135 17.41 10.2726 17.2193 10.095C17.0285 9.91734 16.7698 9.81756 16.5 9.81756ZM19.5516 9.81756C19.2819 9.81756 19.0231 9.91734 18.8324 10.095C18.6416 10.2726 18.5344 10.5135 18.5344 10.7646V20.2353C18.5344 20.4865 18.6416 20.7274 18.8324 20.905C19.0231 21.0826 19.2819 21.1824 19.5516 21.1824C19.8214 21.1824 20.0802 21.0826 20.2709 20.905C20.4617 20.7274 20.5689 20.4865 20.5689 20.2353V10.7646C20.5689 10.5135 20.4617 10.2726 20.2709 10.095C20.0802 9.91734 19.8214 9.81756 19.5516 9.81756ZM22.6033 9.81756C22.3335 9.81756 22.0748 9.91734 21.884 10.095C21.6933 10.2726 21.5861 10.5135 21.5861 10.7646V20.2353C21.5861 20.4865 21.6933 20.7274 21.884 20.905C22.0748 21.0826 22.3335 21.1824 22.6033 21.1824C22.8731 21.1824 23.1318 21.0826 23.3226 20.905C23.5133 20.7274 23.6205 20.4865 23.6205 20.2353V10.7646C23.6205 10.5135 23.5133 10.2726 23.3226 10.095C23.1318 9.91734 22.8731 9.81756 22.6033 9.81756ZM25.655 9.81756C25.3852 9.81756 25.1264 9.91734 24.9357 10.095C24.7449 10.2726 24.6377 10.5135 24.6377 10.7646V15.696V16.9409V20.2353C24.6377 20.4865 24.7449 20.7274 24.9357 20.905C25.1264 21.0826 25.3852 21.1824 25.655 21.1824C25.9247 21.1824 26.1835 21.0826 26.3742 20.905C26.565 20.7274 26.6722 20.4865 26.6722 20.2353V16.9409V15.696V10.7646C26.6722 10.5135 26.565 10.2726 26.3742 10.095C26.1835 9.91734 25.9247 9.81756 25.655 9.81756Z" fill="white"/>
</svg>
