<svg width="24" height="24" viewBox="0 0 24 24" fill="none" xmlns="http://www.w3.org/2000/svg">
<path d="M6.5 11.5H3.5C2.94772 11.5 2.5 11.9477 2.5 12.5V19.5C2.5 20.0523 2.94772 20.5 3.5 20.5H6.5C7.05228 20.5 7.5 20.0523 7.5 19.5V12.5C7.5 11.9477 7.05228 11.5 6.5 11.5Z" fill="#959595"/>
<path d="M13.5 3.5H10.5C9.94772 3.5 9.5 3.94772 9.5 4.5V19.5C9.5 20.0523 9.94772 20.5 10.5 20.5H13.5C14.0523 20.5 14.5 20.0523 14.5 19.5V4.5C14.5 3.94772 14.0523 3.5 13.5 3.5Z" fill="#959595"/>
<path d="M20.5 15.5H17.5C16.9477 15.5 16.5 15.9477 16.5 16.5V19.5C16.5 20.0523 16.9477 20.5 17.5 20.5H20.5C21.0523 20.5 21.5 20.0523 21.5 19.5V16.5C21.5 15.9477 21.0523 15.5 20.5 15.5Z" fill="#959595"/>
</svg>
