<svg width="36" height="36" viewBox="0 0 36 36" fill="none" xmlns="http://www.w3.org/2000/svg">
<circle cx="18" cy="18" r="18" fill="#06442D"/>
<path d="M27.6436 16.9148H27.6135C27.1305 16.9148 26.6325 16.8997 26.1496 16.9148C26.0892 16.9148 26.044 16.9148 25.9987 16.8997C25.8025 15.9037 25.4101 14.9831 24.8668 14.1531C24.897 14.1078 24.9574 14.0474 25.0328 13.972C25.3648 13.64 25.6968 13.3079 26.0289 12.9759C25.4252 12.1459 24.7008 11.4215 23.8708 10.8329C23.5237 11.18 23.1615 11.5272 22.8144 11.8893C22.7691 11.9346 22.7238 11.9648 22.6786 11.995C21.8636 11.4517 20.9279 11.0593 19.9319 10.8631C19.9319 10.8329 19.9168 10.8028 19.9168 10.7575C19.9319 10.5009 19.9168 10.2293 19.9168 9.97273C19.9168 9.71618 19.9168 9.47471 19.9168 9.23325C19.4339 9.15779 18.9359 9.11252 18.4228 9.11252C17.9097 9.11252 17.4116 9.15779 16.9287 9.23325C16.9438 9.47471 16.9287 9.73127 16.9287 9.97273C16.9287 10.2293 16.9287 10.5009 16.9287 10.7575C16.9287 10.8028 16.9287 10.8329 16.9136 10.8631C15.9176 11.0593 14.9819 11.4517 14.167 11.995C14.1217 11.9799 14.0764 11.9346 14.0311 11.8893C13.684 11.5272 13.3369 11.18 12.9898 10.8329C12.1598 11.4215 11.4354 12.1459 10.8318 12.9759C11.1638 13.3079 11.4958 13.64 11.8278 13.972C11.9032 14.0474 11.9636 14.1078 11.9938 14.1531C11.4505 14.968 11.0581 15.8886 10.8619 16.8997C10.8167 16.9148 10.7714 16.9148 10.711 16.9148C10.2281 16.8997 9.73008 16.9148 9.24715 16.9148H9.23206C9.1566 17.4128 9.11133 17.9259 9.11133 18.439C9.11133 18.9522 9.1566 19.4653 9.23206 19.9482C9.24715 19.9482 9.27733 19.9482 9.29243 19.9482C9.80554 19.9482 10.3186 19.9482 10.8318 19.9482C10.8468 19.9482 10.8619 19.9482 10.877 19.9482C11.0732 20.9593 11.4807 21.9101 12.0391 22.725C12.024 22.7552 11.9938 22.7703 11.9636 22.8005C11.6316 23.1174 11.2996 23.4494 10.9676 23.7814C10.9223 23.8267 10.8921 23.8569 10.8619 23.8871C11.4505 24.702 12.1749 25.4264 13.0049 26.015C13.02 25.9999 13.02 25.9999 13.0351 25.9848C13.3822 25.6226 13.7444 25.2755 14.0915 24.9133C14.1217 24.8831 14.1368 24.868 14.167 24.8529C14.997 25.3962 15.9327 25.7886 16.9287 25.9848C16.9438 26.015 16.9438 26.0602 16.9438 26.1206C16.9287 26.6186 16.9438 27.1166 16.9438 27.6147V27.6448C17.4267 27.7203 17.9247 27.7656 18.4228 27.7656C18.9359 27.7656 19.4188 27.7203 19.9017 27.6448V27.6147C19.9017 27.1166 19.9017 26.6186 19.8866 26.1206C19.8866 26.0753 19.8866 26.0301 19.9017 25.9848C20.9129 25.7886 21.8485 25.3962 22.6635 24.8529C22.6936 24.868 22.7087 24.8982 22.7389 24.9133C23.086 25.2755 23.4482 25.6226 23.7953 25.9848C23.8104 25.9999 23.8104 25.9999 23.8255 26.015C24.6555 25.4264 25.3648 24.702 25.9685 23.8871C25.9383 23.8569 25.9081 23.8267 25.8629 23.7814C25.5308 23.4494 25.2139 23.1174 24.8668 22.8005C24.8366 22.7703 24.8215 22.7401 24.7914 22.725C25.3497 21.895 25.7421 20.9593 25.9534 19.9482C25.9685 19.9482 25.9836 19.9482 25.9987 19.9482C26.5118 19.9482 27.0249 19.9482 27.538 19.9482C27.5531 19.9482 27.5833 19.9482 27.5984 19.9482C27.6738 19.4502 27.7191 18.9522 27.7191 18.439C27.7644 17.9259 27.7191 17.4128 27.6436 16.9148ZM20.7921 18.6654C20.7318 18.7711 20.6412 18.8465 20.5356 18.8767C20.4601 18.8918 19.3132 19.1936 18.5737 19.3747L18.3775 19.42L19.3433 22.0308L19.3584 22.061C19.4943 22.2874 19.4339 22.5741 19.2075 22.7099C18.9811 22.8458 18.6944 22.7854 18.5586 22.559L16.0987 18.6956C16.0081 18.5447 16.0081 18.3636 16.0836 18.2127C16.144 18.0919 16.2496 18.0165 16.3854 17.9863C16.4307 17.9712 17.5776 17.7297 18.3171 17.5637L18.5284 17.5185L17.5324 14.8473L17.5173 14.8171C17.3815 14.5907 17.4418 14.304 17.6682 14.1682C17.7436 14.1229 17.8342 14.0927 17.9247 14.0927C18.0757 14.0927 18.2417 14.1682 18.3171 14.304L20.777 18.1825C20.8223 18.2579 20.8525 18.3485 20.8525 18.439C20.8525 18.5145 20.8223 18.59 20.7921 18.6654Z" fill="white"/>
</svg>
