<svg width="23" height="23" viewBox="0 0 23 23" fill="none" xmlns="http://www.w3.org/2000/svg">
<path d="M8.7542 19.9078V16.9775C8.7542 16.2295 9.36504 15.6231 10.1185 15.6231H12.873C13.2348 15.6231 13.5818 15.7658 13.8377 16.0198C14.0936 16.2738 14.2373 16.6183 14.2373 16.9775V19.9078C14.235 20.2188 14.3579 20.5178 14.5786 20.7385C14.7993 20.9592 15.0996 21.0834 15.4129 21.0834H17.292C18.1697 21.0856 19.0122 20.7411 19.6336 20.1258C20.255 19.5105 20.6042 18.675 20.6042 17.8038V9.45576C20.6042 8.75196 20.2899 8.08437 19.7461 7.63283L13.3535 2.56439C12.2415 1.67573 10.6482 1.70442 9.56938 2.63254L3.32259 7.63283C2.75308 8.07106 2.41269 8.74063 2.39587 9.45576V17.7953C2.39587 19.6112 3.87878 21.0834 5.70804 21.0834H7.54432C8.19497 21.0834 8.72375 20.5622 8.72846 19.9163L8.7542 19.9078Z" fill="#191919"/>
</svg>
