<svg width="14" height="14" viewBox="0 0 14 14" fill="none" xmlns="http://www.w3.org/2000/svg">
<path fill-rule="evenodd" clip-rule="evenodd" d="M13.8278 13.0234L11.4213 10.6722L11.3667 10.5875C11.2603 10.4804 11.1182 10.423 10.9677 10.423C10.8201 10.423 10.6752 10.4804 10.5716 10.5875C8.52626 12.4627 5.37641 12.5642 3.20791 10.8248C1.03942 9.08331 0.52844 6.04265 2.01307 3.71666C3.4977 1.39137 6.51665 0.503815 9.06733 1.64126C11.6187 2.77871 12.9116 5.58837 12.0863 8.20835C12.0289 8.40014 12.0751 8.60523 12.2144 8.75012C12.3516 8.89502 12.5595 8.95521 12.7562 8.91112C12.9528 8.86772 13.1117 8.72213 13.1719 8.53383C14.1561 5.42528 12.6687 2.07874 9.67211 0.658508C6.67485 -0.759625 3.06582 0.175531 1.18221 2.8599C-0.702102 5.54498 -0.297521 9.1708 2.13626 11.3967C4.56655 13.6198 8.29667 13.7724 10.9103 11.7551L13.0403 13.8382C13.2594 14.0545 13.6143 14.0545 13.8362 13.8382C14.0546 13.6219 14.0546 13.2719 13.8362 13.0535L13.8278 13.0234Z" fill="black"/>
</svg>
