<svg width="20" height="20" viewBox="0 0 20 20" fill="none" xmlns="http://www.w3.org/2000/svg">
<g clip-path="url(#clip0_106_1443)">
<path d="M19.7208 6.8772L12.2208 0.21053C12.101 0.102902 11.9526 0.0323659 11.7935 0.00748487C11.6344 -0.0173961 11.4715 0.00444858 11.3246 0.0703667C11.1776 0.136285 11.053 0.243441 10.9658 0.378825C10.8786 0.514208 10.8326 0.671996 10.8333 0.83303V3.50553C8.33 4.1772 0 7.30386 0 19.1664C0.000305111 19.3598 0.0679133 19.5472 0.19123 19.6962C0.314546 19.8453 0.485886 19.9468 0.675865 19.9834C0.865844 20.0199 1.06262 19.9892 1.23245 19.8966C1.40229 19.8039 1.53459 19.6551 1.60667 19.4755C4.0775 13.298 8.89417 12.0089 10.8325 11.7397V14.1664C10.8323 14.3272 10.8787 14.4847 10.9661 14.6198C11.0535 14.7549 11.1781 14.8618 11.3249 14.9276C11.4717 14.9935 11.6344 15.0154 11.7934 14.9908C11.9524 14.9661 12.1008 14.896 12.2208 14.7889L19.7208 8.1222C19.8087 8.04402 19.879 7.94813 19.9271 7.84084C19.9753 7.73355 20.0001 7.61729 20.0001 7.4997C20.0001 7.3821 19.9753 7.26584 19.9271 7.15855C19.879 7.05126 19.8087 6.95538 19.7208 6.8772Z" fill="#959595" fill-opacity="0.87"/>
</g>
<defs>
<clipPath id="clip0_106_1443">
<rect width="20" height="20" fill="white"/>
</clipPath>
</defs>
</svg>
