<svg width="20" height="19" viewBox="0 0 20 19" fill="none" xmlns="http://www.w3.org/2000/svg">
<path fill-rule="evenodd" clip-rule="evenodd" d="M10.0016 17.3346C9.26494 17.3346 8.66828 16.738 8.66828 16.0013C8.66828 15.2646 9.26494 14.668 10.0016 14.668C10.7383 14.668 11.3349 15.2646 11.3349 16.0013C11.3349 16.738 10.7383 17.3346 10.0016 17.3346ZM19.3333 15.3334H12.5727C12.2733 14.1561 11.2133 13.3334 10 13.3334C8.78667 13.3334 7.72667 14.1561 7.42733 15.3334H0.666667C0.299333 15.3334 0 15.6328 0 16.0001C0 16.3674 0.299333 16.6668 0.666667 16.6668H7.42733C7.72667 17.8441 8.78667 18.6668 10 18.6668C11.2133 18.6668 12.2733 17.8441 12.5727 16.6668H19.3333C19.7007 16.6668 20 16.3674 20 16.0001C20 15.6328 19.7007 15.3334 19.3333 15.3334ZM16.6659 10.6683C15.9292 10.6683 15.3325 10.0716 15.3325 9.33498C15.3325 8.59831 15.9292 8.00165 16.6659 8.00165C17.4025 8.00165 17.9992 8.59831 17.9992 9.33498C17.9992 10.0716 17.4025 10.6683 16.6659 10.6683ZM19.3333 8.66581H19.2393C18.94 7.48848 17.88 6.66581 16.6667 6.66581C15.4533 6.66581 14.3933 7.48848 14.094 8.66581H0.666667C0.299333 8.66581 0 8.96514 0 9.33248C0 9.69981 0.299333 9.99914 0.666667 9.99914H14.094C14.3933 11.1765 15.4533 11.9991 16.6667 11.9991C17.88 11.9991 18.94 11.1765 19.2393 9.99914H19.3333C19.7007 9.99914 20 9.69981 20 9.33248C20 8.96514 19.7007 8.66581 19.3333 8.66581ZM3.33374 1.33352C4.07041 1.33352 4.66708 1.93019 4.66708 2.66686C4.66708 3.40352 4.07041 4.00019 3.33374 4.00019C2.59708 4.00019 2.00041 3.40352 2.00041 2.66686C2.00041 1.93019 2.59708 1.33352 3.33374 1.33352ZM0.666667 3.33333H0.760667C1.06 4.51067 2.12 5.33333 3.33333 5.33333C4.54667 5.33333 5.60667 4.51067 5.906 3.33333H19.3333C19.7007 3.33333 20 3.034 20 2.66667C20 2.29933 19.7007 2 19.3333 2H5.906C5.60667 0.822667 4.54667 0 3.33333 0C2.12 0 1.06 0.822667 0.760667 2H0.666667C0.299333 2 0 2.29933 0 2.66667C0 3.034 0.299333 3.33333 0.666667 3.33333Z" fill="#E8F1FF"/>
</svg>
