<?xml version="1.0" encoding="UTF-8"?>
<!DOCTYPE svg PUBLIC "-//W3C//DTD SVG 1.1//EN" "http://www.w3.org/Graphics/SVG/1.1/DTD/svg11.dtd">
<svg xmlns="http://www.w3.org/2000/svg" version="1.1" width="100px" height="100px" style="shape-rendering:geometricPrecision; text-rendering:geometricPrecision; image-rendering:optimizeQuality; fill-rule:evenodd; clip-rule:evenodd" xmlns:xlink="http://www.w3.org/1999/xlink">
<g><path style="opacity:0.933" fill="#959595" d="M 65.5,9.5 C 66.8333,9.5 68.1667,9.5 69.5,9.5C 69.5,14.8333 69.5,20.1667 69.5,25.5C 72.8333,25.5 76.1667,25.5 79.5,25.5C 77.3682,34.89 74.0349,43.89 69.5,52.5C 68.3493,53.731 67.1827,53.731 66,52.5C 65.5006,47.1771 65.334,41.8437 65.5,36.5C 62.4816,36.6646 59.4816,36.498 56.5,36C 55.9781,35.4387 55.6448,34.772 55.5,34C 59.2607,25.9825 62.5941,17.8159 65.5,9.5 Z"/></g>
<g><path style="opacity:0.967" fill="#959595" d="M 21.5,49.5 C 25.6049,49.2338 29.6049,49.7338 33.5,51C 42.5833,54.8058 51.5833,58.8058 60.5,63C 64.0719,65.6258 64.4052,68.6258 61.5,72C 61.8333,72.1667 62.1667,72.3333 62.5,72.5C 70.6969,68.769 79.0303,65.4357 87.5,62.5C 94.1538,64.2749 95.1538,67.7749 90.5,73C 80.6726,78.0795 71.0059,83.4129 61.5,89C 59.1667,89.6667 56.8333,89.6667 54.5,89C 44,84.8333 33.5,80.6667 23,76.5C 17.4422,78.6955 11.9422,81.0288 6.5,83.5C 5.16667,74.1667 5.16667,64.8333 6.5,55.5C 11.7015,53.723 16.7015,51.723 21.5,49.5 Z"/></g>
</svg>
